<svg width="88" height="24" viewBox="0 0 88 24" fill="none" xmlns="http://www.w3.org/2000/svg">
<g clip-path="url(#clip0_178_3916)">
<g filter="url(#filter0_i_178_3916)">
<path d="M57.4064 7.39261C57.5125 7.27739 57.6231 7.16217 57.7292 7.04234C58.642 6.02379 59.7624 5.39238 61.1456 5.29559C61.9063 5.24028 62.6486 5.35551 63.3356 5.71039C64.0456 6.07909 64.5021 6.66441 64.7326 7.42948C64.7649 7.54009 64.7925 7.64609 64.8386 7.80279C64.9493 7.64609 65.0369 7.52626 65.1291 7.40643C66.0881 6.12057 67.3514 5.37855 68.9651 5.28637C69.772 5.24028 70.5465 5.38777 71.2335 5.83943C72.2017 6.47545 72.5613 7.4433 72.5798 8.54481C72.6074 9.92285 72.589 11.3055 72.5982 12.6882C72.6028 13.7482 72.6121 14.8036 72.6213 15.8636C72.6213 16.0157 72.6443 16.1724 72.6812 16.3199C72.7826 16.7255 73.0316 16.9928 73.442 17.1034C73.5618 17.1357 73.6863 17.1449 73.797 17.1956C73.8615 17.2232 73.8984 17.3108 73.9491 17.3707C73.8892 17.4122 73.8292 17.4537 73.7647 17.4906C73.7416 17.5044 73.7048 17.4906 73.6725 17.4906C72.1648 17.4906 70.6618 17.4906 69.1541 17.4906C69.0573 17.4906 68.9282 17.5459 68.9052 17.3707C68.8821 17.2002 69.0066 17.1956 69.1172 17.1725C69.8918 17.0066 70.1731 16.7117 70.2192 15.9235C70.2607 15.2368 70.2514 14.5455 70.2514 13.8542C70.2561 12.3794 70.2607 10.9091 70.2422 9.43432C70.2376 9.02413 70.1915 8.60473 70.0901 8.20837C69.8411 7.24513 69.1126 6.69207 68.1168 6.64137C66.7382 6.57224 65.5994 7.41565 65.0138 8.56786C64.977 8.63699 64.9724 8.72917 64.9724 8.81213C64.9724 10.9921 64.9724 13.1675 64.977 15.3474C64.977 15.5917 64.9908 15.8406 65.0185 16.0802C65.0784 16.7024 65.3735 17.0112 65.9821 17.1495C66.1066 17.1772 66.3463 17.1034 66.314 17.3569C66.2818 17.6012 66.0697 17.4813 65.9452 17.4813C64.4698 17.4906 62.9944 17.4859 61.519 17.4906C61.4729 17.4906 61.4222 17.5044 61.3807 17.4859C61.3346 17.4675 61.2562 17.4214 61.2608 17.3892C61.2655 17.3246 61.307 17.2601 61.3392 17.2002C61.3485 17.1864 61.3807 17.1864 61.4038 17.1864C62.3812 17.0066 62.561 16.5181 62.5749 15.6977C62.5979 14.0201 62.5979 12.3379 62.5979 10.6603C62.5979 10.0381 62.5933 9.41588 62.5518 8.7983C62.5334 8.49873 62.4504 8.18993 62.3443 7.9088C62.0262 7.05616 61.33 6.69667 60.4771 6.65059C59.1538 6.57684 58.1718 7.17138 57.5171 8.30516C57.4295 8.45725 57.3834 8.65082 57.3834 8.82595C57.3741 11.052 57.3788 13.2735 57.3834 15.4995C57.3834 15.6839 57.3972 15.8682 57.4156 16.0526C57.4756 16.684 57.7568 16.9974 58.3792 17.1541C58.5037 17.1864 58.7389 17.1218 58.7066 17.3707C58.6743 17.5966 58.4715 17.4859 58.347 17.4859C56.8716 17.4952 55.3962 17.4952 53.9208 17.4906C53.8424 17.4906 53.718 17.4352 53.6995 17.3799C53.6488 17.2232 53.7825 17.2048 53.9024 17.1818C54.6631 17.0158 54.9398 16.7209 54.9951 15.9466C55.0366 15.3428 55.032 14.7345 55.032 14.1307C55.0366 12.1904 55.032 10.2501 55.032 8.30976C55.032 8.05628 55.0181 7.80279 54.9813 7.55392C54.9029 7.05616 54.6124 6.72433 54.1375 6.5538C54.0361 6.51693 53.9254 6.5031 53.8332 6.45241C53.7733 6.42014 53.6995 6.34179 53.7041 6.28649C53.7041 6.23118 53.7871 6.14822 53.8471 6.1344C54.4142 5.99613 54.9859 5.8763 55.553 5.74726C56.0786 5.62743 56.5996 5.50299 57.1206 5.37855C57.3511 5.32324 57.3834 5.34629 57.3834 5.59516C57.3834 6.18509 57.3834 6.77502 57.3834 7.36495C57.3741 7.37417 57.388 7.38339 57.4064 7.39261Z" fill="url(#paint0_linear_178_3916)"/>
</g>
<g filter="url(#filter1_i_178_3916)">
<path d="M10.8991 0.985828C10.7654 0.985828 10.6824 0.985828 10.5994 0.985828C8.83357 0.985828 7.06773 0.967393 5.30188 0.995046C4.73939 1.00426 4.16768 1.09183 3.62363 1.2301C2.59548 1.4928 1.84395 2.13804 1.31835 3.05058C1.19848 3.25798 1.0786 3.46077 0.981779 3.67738C0.908009 3.8433 0.801966 3.88939 0.622154 3.82487C0.677481 2.64961 0.732808 1.47436 0.792745 0.266851C0.875736 0.262243 0.954115 0.253025 1.03711 0.253025C5.43559 0.253025 9.83868 0.248416 14.2372 0.253025C14.3201 0.253025 14.4031 0.289896 14.4907 0.308331C14.4585 0.382072 14.4354 0.460422 14.3893 0.524946C12.7387 2.98145 11.0835 5.43796 9.43756 7.89907C7.80542 10.3417 6.17789 12.789 4.55036 15.2363C4.22762 15.7202 3.9141 16.2088 3.57753 16.725C3.68818 16.7296 3.75734 16.7388 3.83111 16.7388C5.68917 16.7388 7.54723 16.7434 9.40528 16.7388C10.2444 16.7388 11.0743 16.6466 11.8719 16.3517C12.8402 15.9922 13.5548 15.3331 14.1265 14.4989C14.2464 14.3238 14.3524 14.1302 14.4815 13.9597C14.5368 13.8859 14.6383 13.8445 14.7167 13.7892C14.7397 13.8076 14.7582 13.826 14.7812 13.8445C14.7443 14.0519 14.712 14.2592 14.6752 14.4666C14.5046 15.393 14.3248 16.3194 14.1634 17.2504C14.1311 17.4439 14.0527 17.49 13.8637 17.49C10 17.4854 6.13639 17.4854 2.27735 17.4854C1.59498 17.4854 0.91262 17.49 0.225646 17.4854C0.147266 17.4854 0.0734968 17.444 -0.00488281 17.4255C0.0227806 17.3564 0.0412229 17.2826 0.0781074 17.2227C3.2594 12.471 6.43608 7.71472 9.61276 2.9538C9.99544 2.37769 10.3735 1.80159 10.7516 1.22549C10.7931 1.16096 10.83 1.09644 10.8991 0.985828Z" fill="url(#paint1_linear_178_3916)"/>
</g>
<g filter="url(#filter2_i_178_3916)">
<path d="M51.8224 16.716C51.0017 17.5133 50.0289 17.8267 48.8993 17.5364C48.2676 17.3751 47.9265 16.9004 47.742 16.3012C47.6913 16.1353 47.659 15.9602 47.6083 15.762C47.5576 15.8173 47.5161 15.8588 47.4838 15.9003C46.405 17.4442 44.8927 17.8913 43.0992 17.624C42.3292 17.5087 41.633 17.2092 41.112 16.61C39.9041 15.2228 40.2314 12.9414 41.7667 11.9136C42.6704 11.3145 43.6801 11.0195 44.7313 10.849C45.5889 10.7153 46.4511 10.6185 47.3086 10.5079C47.3778 10.4987 47.4424 10.4849 47.5023 10.4757C47.5161 10.4526 47.53 10.4388 47.53 10.425C47.5023 9.57694 47.5253 8.7197 47.4285 7.88089C47.3271 7.00061 46.8706 6.30928 45.9624 6.06041C45.008 5.7977 44.132 5.94979 43.4265 6.70103C43.1499 6.99139 43.007 7.35549 42.9148 7.74263C42.7718 8.351 42.4768 8.57222 41.859 8.47082C41.2089 8.36482 41.1443 8.30491 41.2181 7.65045C41.3057 6.88539 41.8128 6.41529 42.4445 6.0558C43.0669 5.70092 43.7447 5.51196 44.4455 5.39674C45.4414 5.23543 46.4326 5.23543 47.4147 5.49813C48.927 5.90371 49.7753 6.93148 49.8306 8.49848C49.8767 9.74747 49.8583 10.9965 49.8675 12.2501C49.8721 13.0474 49.8629 13.8447 49.8721 14.642C49.8721 14.8955 49.8813 15.149 49.9182 15.3979C50.0427 16.3197 50.5591 16.6976 51.472 16.5224C51.6564 16.481 51.7809 16.4948 51.8224 16.716ZM47.5253 11.0702C46.9582 11.1486 46.4142 11.2039 45.884 11.3053C45.1186 11.4527 44.3809 11.674 43.7585 12.1855C42.652 13.0935 42.5413 14.8725 43.5372 15.7943C44.5561 16.7391 46.6678 16.61 47.4977 14.9601C47.5346 14.8909 47.5392 14.7987 47.5392 14.7158C47.5438 13.5912 47.5438 12.4621 47.5438 11.3375C47.5438 11.2684 47.5346 11.1993 47.5253 11.0702Z" fill="url(#paint2_linear_178_3916)"/>
</g>
<g filter="url(#filter3_i_178_3916)">
<path d="M83.1375 15.7249C82.7825 16.278 82.3998 16.7204 81.8927 17.0246C80.3528 17.9372 78.7621 17.9833 77.2176 17.0891C76.1986 16.4992 75.8713 15.4991 75.922 14.3653C75.9773 13.1209 76.6366 12.2637 77.7017 11.6784C78.5961 11.1852 79.569 10.9456 80.5695 10.8027C81.3302 10.6921 82.0909 10.6091 82.8517 10.5123C82.9208 10.5031 82.9854 10.4893 83.0776 10.4755C83.0592 9.47997 83.1652 8.48907 82.8932 7.52121C82.5935 6.45197 81.7728 5.90351 80.5925 5.95421C79.5321 5.99569 78.7621 6.65475 78.5454 7.70557C78.4855 7.99131 78.4486 8.29089 78.112 8.40611C77.7109 8.54437 77.3236 8.50289 76.9594 8.30471C76.9041 8.27706 76.8672 8.18489 76.858 8.11575C76.7519 7.55348 76.9087 7.0465 77.3052 6.65936C77.6141 6.35979 77.9737 6.07404 78.361 5.89891C79.9378 5.19376 81.5838 5.06932 83.2344 5.58551C84.5991 6.01413 85.3552 7.09259 85.3783 8.6089C85.4059 10.4939 85.3875 12.3835 85.3967 14.2685C85.4013 14.6741 85.4106 15.0843 85.4705 15.4853C85.595 16.3149 86.1436 16.6836 86.9689 16.5223C87.0196 16.513 87.0796 16.4808 87.1257 16.4946C87.1994 16.5176 87.287 16.5545 87.3285 16.6144C87.3516 16.6513 87.3239 16.7619 87.2824 16.7988C86.471 17.55 85.5212 17.8081 84.4515 17.5408C83.7507 17.3657 83.4003 16.8403 83.2297 16.172C83.2113 16.1029 83.2021 16.0383 83.1883 15.9692C83.1744 15.9093 83.1652 15.854 83.1375 15.7249ZM83.0638 11.0884C82.7088 11.1253 82.3768 11.153 82.0448 11.2037C81.3025 11.3189 80.5602 11.4479 79.8779 11.7982C79.0111 12.2453 78.4763 12.9182 78.3933 13.9137C78.3103 14.9138 78.7713 15.7802 79.6197 16.1628C80.611 16.6052 82.2016 16.4762 82.9992 15.0382C83.0499 14.9506 83.0684 14.8354 83.0684 14.734C83.073 13.6049 83.073 12.4803 83.073 11.3512C83.0776 11.2774 83.0684 11.1991 83.0638 11.0884Z" fill="url(#paint3_linear_178_3916)"/>
</g>
<g filter="url(#filter4_i_178_3916)">
<path d="M20.812 5.55856C20.8719 5.72909 20.8258 5.80283 20.6552 5.8397C19.7055 6.05632 19.4934 6.42963 19.8484 7.34218C20.5492 9.13501 21.273 10.9186 21.9831 12.7069C22.2828 13.4627 22.5778 14.2186 22.8914 15.0067C22.9328 14.9421 22.9651 14.9053 22.9836 14.8638C23.8688 12.5409 24.7586 10.2227 25.63 7.89524C25.7453 7.58184 25.8191 7.24539 25.8467 6.91356C25.8882 6.38354 25.63 6.06553 25.1183 5.91805C25.0307 5.89501 24.9384 5.87657 24.8508 5.85353C24.6434 5.80283 24.6434 5.80283 24.6756 5.55856C24.7402 5.55395 24.8047 5.54474 24.8739 5.54474C26.0173 5.54474 27.1607 5.54013 28.3088 5.54474C28.4056 5.54474 28.5393 5.49865 28.5531 5.66917C28.567 5.82588 28.4379 5.82588 28.3364 5.84431C27.7324 5.95492 27.2944 6.30058 27.0455 6.84904C26.6351 7.75697 26.2294 8.66491 25.8559 9.59129C24.4728 13.011 23.1127 16.44 21.711 19.8505C21.3883 20.6387 20.9595 21.3945 20.5307 22.1319C20.3509 22.4407 20.0697 22.7126 19.7884 22.9431C19.0369 23.5653 18.1655 23.6759 17.248 23.4039C16.6072 23.215 16.2844 22.7403 16.3259 22.1411C16.3905 21.2424 17.3033 20.7354 18.1425 21.1364C18.2808 21.2009 18.4053 21.2931 18.539 21.3668C19.0185 21.6295 19.5487 21.6019 19.9544 21.2332C20.1988 21.012 20.4385 20.7447 20.5815 20.4497C20.9734 19.6524 21.3145 18.832 21.6696 18.0162C21.6972 17.9563 21.6834 17.8641 21.6557 17.8042C20.1849 14.3799 18.7142 10.9601 17.2388 7.54036C17.1466 7.32835 17.0544 7.11635 16.9437 6.91817C16.6348 6.3605 16.183 5.97797 15.5421 5.85814C15.4361 5.8397 15.33 5.80744 15.3715 5.67378C15.39 5.61848 15.4822 5.55395 15.5421 5.55395C17.2849 5.54935 19.0277 5.54935 20.7705 5.54935C20.7705 5.54474 20.7843 5.54935 20.812 5.55856Z" fill="url(#paint4_linear_178_3916)"/>
</g>
<g filter="url(#filter5_i_178_3916)">
<path d="M37.977 15.5549C38.3597 15.7945 38.3735 15.8176 38.1476 16.1817C37.6727 16.9514 36.9535 17.3846 36.0867 17.5689C35.1185 17.7763 34.1456 17.7948 33.2235 17.3569C32.3659 16.9514 31.9787 16.2093 31.8403 15.3152C31.7942 15.0203 31.7804 14.7207 31.7804 14.4211C31.7758 11.877 31.7804 9.32835 31.7804 6.78427C31.7804 6.36487 31.7112 6.29113 31.2917 6.2773C30.9321 6.26809 30.5678 6.26809 30.2082 6.2773C30.0468 6.28191 29.9823 6.222 30.0007 6.06069C30.0053 6.00077 30.0099 5.93625 30.0007 5.87633C29.9777 5.70581 30.0653 5.65511 30.222 5.63207C30.5632 5.58598 30.9044 5.52606 31.241 5.45693C31.679 5.36936 31.785 5.22649 31.7896 4.77482C31.7942 4.26324 31.7896 3.74706 31.7988 3.23548C31.7988 3.16173 31.8496 3.05573 31.9095 3.02347C32.5826 2.68702 33.2604 2.36441 33.9335 2.03718C33.9796 2.01414 34.0304 2.00492 34.1133 1.97266C34.1133 3.16634 34.1133 4.33238 34.1133 5.52145C35.3444 5.52145 36.5477 5.52145 37.7926 5.52145C37.7926 5.7519 37.8018 5.9639 37.7834 6.1713C37.7787 6.21278 37.645 6.26809 37.5759 6.26809C36.5385 6.27269 35.5011 6.27269 34.4684 6.27269C34.3715 6.27269 34.2701 6.27269 34.1456 6.27269C34.141 6.37409 34.1318 6.46166 34.1318 6.55383C34.1318 9.00573 34.1272 11.4622 34.1364 13.9141C34.1364 14.2644 34.1779 14.6193 34.2563 14.9603C34.4868 15.942 35.2614 16.472 36.2711 16.3799C36.8705 16.3246 37.3776 16.0941 37.8202 15.6931C37.8617 15.6517 37.9217 15.6056 37.977 15.5549Z" fill="url(#paint5_linear_178_3916)"/>
</g>
<path d="M83.2761 0.548476C83.479 0.281164 83.7141 0.101419 84.0184 0.032287C84.8529 -0.152066 85.503 0.479343 85.3693 1.3458C85.314 1.69147 85.1757 2.00487 84.9498 2.27679C84.4933 2.82524 83.9308 3.24925 83.3453 3.641C83.2992 3.67326 83.1885 3.67787 83.147 3.64561C82.5661 3.2216 81.9759 2.80219 81.5333 2.22148C81.2982 1.9173 81.1553 1.57164 81.1507 1.18449C81.1414 0.663696 81.3766 0.262728 81.7961 0.0922017C82.248 -0.0967602 82.7551 0.00924283 83.1101 0.368731C83.1562 0.419429 83.207 0.474734 83.2761 0.548476Z" fill="url(#paint6_linear_178_3916)"/>
</g>
<defs>
<filter id="filter0_i_178_3916" x="53.6885" y="5.27832" width="20.2607" height="12.2344" filterUnits="userSpaceOnUse" color-interpolation-filters="sRGB">
<feFlood flood-opacity="0" result="BackgroundImageFix"/>
<feBlend mode="normal" in="SourceGraphic" in2="BackgroundImageFix" result="shape"/>
<feColorMatrix in="SourceAlpha" type="matrix" values="0 0 0 0 0 0 0 0 0 0 0 0 0 0 0 0 0 0 127 0" result="hardAlpha"/>
<feOffset/>
<feGaussianBlur stdDeviation="1.5"/>
<feComposite in2="hardAlpha" operator="arithmetic" k2="-1" k3="1"/>
<feColorMatrix type="matrix" values="0 0 0 0 0 0 0 0 0 0 0 0 0 0 0 0 0 0 0.5 0"/>
<feBlend mode="normal" in2="shape" result="effect1_innerShadow_178_3916"/>
</filter>
<filter id="filter1_i_178_3916" x="-0.00488281" y="0.250977" width="14.7861" height="17.2393" filterUnits="userSpaceOnUse" color-interpolation-filters="sRGB">
<feFlood flood-opacity="0" result="BackgroundImageFix"/>
<feBlend mode="normal" in="SourceGraphic" in2="BackgroundImageFix" result="shape"/>
<feColorMatrix in="SourceAlpha" type="matrix" values="0 0 0 0 0 0 0 0 0 0 0 0 0 0 0 0 0 0 127 0" result="hardAlpha"/>
<feOffset/>
<feGaussianBlur stdDeviation="1.5"/>
<feComposite in2="hardAlpha" operator="arithmetic" k2="-1" k3="1"/>
<feColorMatrix type="matrix" values="0 0 0 0 0 0 0 0 0 0 0 0 0 0 0 0 0 0 0.5 0"/>
<feBlend mode="normal" in2="shape" result="effect1_innerShadow_178_3916"/>
</filter>
<filter id="filter2_i_178_3916" x="40.3779" y="5.28613" width="11.4443" height="12.4102" filterUnits="userSpaceOnUse" color-interpolation-filters="sRGB">
<feFlood flood-opacity="0" result="BackgroundImageFix"/>
<feBlend mode="normal" in="SourceGraphic" in2="BackgroundImageFix" result="shape"/>
<feColorMatrix in="SourceAlpha" type="matrix" values="0 0 0 0 0 0 0 0 0 0 0 0 0 0 0 0 0 0 127 0" result="hardAlpha"/>
<feOffset/>
<feGaussianBlur stdDeviation="1.5"/>
<feComposite in2="hardAlpha" operator="arithmetic" k2="-1" k3="1"/>
<feColorMatrix type="matrix" values="0 0 0 0 0 0 0 0 0 0 0 0 0 0 0 0 0 0 0.5 0"/>
<feBlend mode="normal" in2="shape" result="effect1_innerShadow_178_3916"/>
</filter>
<filter id="filter3_i_178_3916" x="75.917" y="5.26953" width="11.4199" height="12.4658" filterUnits="userSpaceOnUse" color-interpolation-filters="sRGB">
<feFlood flood-opacity="0" result="BackgroundImageFix"/>
<feBlend mode="normal" in="SourceGraphic" in2="BackgroundImageFix" result="shape"/>
<feColorMatrix in="SourceAlpha" type="matrix" values="0 0 0 0 0 0 0 0 0 0 0 0 0 0 0 0 0 0 127 0" result="hardAlpha"/>
<feOffset/>
<feGaussianBlur stdDeviation="1.5"/>
<feComposite in2="hardAlpha" operator="arithmetic" k2="-1" k3="1"/>
<feColorMatrix type="matrix" values="0 0 0 0 0 0 0 0 0 0 0 0 0 0 0 0 0 0 0.5 0"/>
<feBlend mode="normal" in2="shape" result="effect1_innerShadow_178_3916"/>
</filter>
<filter id="filter4_i_178_3916" x="15.3623" y="5.53906" width="13.1914" height="18.0049" filterUnits="userSpaceOnUse" color-interpolation-filters="sRGB">
<feFlood flood-opacity="0" result="BackgroundImageFix"/>
<feBlend mode="normal" in="SourceGraphic" in2="BackgroundImageFix" result="shape"/>
<feColorMatrix in="SourceAlpha" type="matrix" values="0 0 0 0 0 0 0 0 0 0 0 0 0 0 0 0 0 0 127 0" result="hardAlpha"/>
<feOffset/>
<feGaussianBlur stdDeviation="1.5"/>
<feComposite in2="hardAlpha" operator="arithmetic" k2="-1" k3="1"/>
<feColorMatrix type="matrix" values="0 0 0 0 0 0 0 0 0 0 0 0 0 0 0 0 0 0 0.5 0"/>
<feBlend mode="normal" in2="shape" result="effect1_innerShadow_178_3916"/>
</filter>
<filter id="filter5_i_178_3916" x="29.9971" y="1.97266" width="8.29883" height="15.7383" filterUnits="userSpaceOnUse" color-interpolation-filters="sRGB">
<feFlood flood-opacity="0" result="BackgroundImageFix"/>
<feBlend mode="normal" in="SourceGraphic" in2="BackgroundImageFix" result="shape"/>
<feColorMatrix in="SourceAlpha" type="matrix" values="0 0 0 0 0 0 0 0 0 0 0 0 0 0 0 0 0 0 127 0" result="hardAlpha"/>
<feOffset/>
<feGaussianBlur stdDeviation="1.5"/>
<feComposite in2="hardAlpha" operator="arithmetic" k2="-1" k3="1"/>
<feColorMatrix type="matrix" values="0 0 0 0 0 0 0 0 0 0 0 0 0 0 0 0 0 0 0.5 0"/>
<feBlend mode="normal" in2="shape" result="effect1_innerShadow_178_3916"/>
</filter>
<linearGradient id="paint0_linear_178_3916" x1="63.8188" y1="5.27832" x2="63.8188" y2="17.513" gradientUnits="userSpaceOnUse">
<stop stop-color="#3AA1A3"/>
<stop offset="1" stop-color="#05364C"/>
</linearGradient>
<linearGradient id="paint1_linear_178_3916" x1="7.38816" y1="0.250977" x2="7.38816" y2="17.49" gradientUnits="userSpaceOnUse">
<stop stop-color="#3AA1A3"/>
<stop offset="1" stop-color="#05364C"/>
</linearGradient>
<linearGradient id="paint2_linear_178_3916" x1="46.1002" y1="5.28613" x2="46.1002" y2="17.6966" gradientUnits="userSpaceOnUse">
<stop stop-color="#3AA1A3"/>
<stop offset="1" stop-color="#05364C"/>
</linearGradient>
<linearGradient id="paint3_linear_178_3916" x1="81.6269" y1="5.26953" x2="81.6269" y2="17.735" gradientUnits="userSpaceOnUse">
<stop stop-color="#3AA1A3"/>
<stop offset="1" stop-color="#05364C"/>
</linearGradient>
<linearGradient id="paint4_linear_178_3916" x1="21.9582" y1="5.53906" x2="21.9582" y2="23.5436" gradientUnits="userSpaceOnUse">
<stop stop-color="#3AA1A3"/>
<stop offset="1" stop-color="#05364C"/>
</linearGradient>
<linearGradient id="paint5_linear_178_3916" x1="34.1464" y1="1.97266" x2="34.1464" y2="17.7105" gradientUnits="userSpaceOnUse">
<stop stop-color="#3AA1A3"/>
<stop offset="1" stop-color="#05364C"/>
</linearGradient>
<linearGradient id="paint6_linear_178_3916" x1="83.2686" y1="0" x2="83.2686" y2="3.66762" gradientUnits="userSpaceOnUse">
<stop stop-color="#FF0000"/>
<stop offset="1" stop-color="#990000"/>
</linearGradient>
<clipPath id="clip0_178_3916">
<rect width="87.3333" height="23.5419" fill="white"/>
</clipPath>
</defs>
</svg>
