<svg width="190" height="171" viewBox="0 0 190 171" fill="none" xmlns="http://www.w3.org/2000/svg">
<g filter="url(#filter0_d_217_1073)">
<path d="M108.808 92.6828C106.371 89.4857 100.737 83.0916 93.0447 75.3047C88.9613 71.6961 79.9589 63.3965 78.5154 60.5856C75.8248 57.2619 73.1026 52.7037 70.0638 46.3413L68.1645 39.9788L67.7847 37.6997C67.7847 37.6997 67.5947 35.6106 67.5947 33.4264C67.5947 30.4811 68.9242 27.2539 68.9242 27.2539C68.9242 27.2539 67.9017 35.591 69.6839 41.3083C71.5832 48.3355 74.622 53.1785 77.1859 56.7871C78.5154 59.0206 91.2404 71.981 91.2404 71.981L107.859 89.2641L118.115 102.939L122.483 124.59L121.438 124.97C121.027 120.57 119.786 111.865 118.115 109.206C116.912 106.041 113.37 98.6654 108.808 92.6828Z" fill="#FFAE00" fill-opacity="0.9"/>
</g>
<g filter="url(#filter1_d_217_1073)">
<path d="M117.839 141.503C118.741 138.829 119.843 136.205 120.495 133.481C122.582 124.824 121.63 116.351 118.641 108.045C116.153 101.143 112.279 95.0933 107.603 89.4781C102.944 83.8796 97.6506 78.8994 92.4907 73.7856C87.3308 68.6717 82.2544 63.4576 77.9461 57.5917C74.239 52.5446 71.1664 47.1467 69.8973 40.9632C67.0585 27.2427 70.9159 15.561 81.6198 6.56999C88.8337 0.486832 97.3167 -1.6523 106.484 1.33914C114.366 3.91279 119.676 9.2272 121.58 17.5163C122.265 20.5078 122.131 23.4992 120.962 26.3737C120.812 26.7581 120.662 27.1759 120.411 27.4934C119.476 28.6298 119.526 29.8999 119.743 31.2202C120.01 32.8579 120.444 34.5124 119.994 36.1836C119.777 37.0025 119.409 37.8047 118.958 38.5066C118.491 39.2252 117.956 39.0748 117.639 38.2726C116.554 35.465 115.485 32.6741 114.366 29.8832C114.233 29.5657 113.865 29.2649 113.531 29.1312C112.195 28.5964 110.809 28.1953 109.473 27.6438C107.72 26.9252 106.501 25.6216 105.716 23.9003C105.332 23.0647 104.981 22.2124 104.614 21.3768C103.061 17.9843 100.172 16.4301 96.4817 16.9983C92.1066 17.6667 88.8838 20.0733 86.6795 23.8168C84.0912 28.1953 83.4567 32.9582 84.4085 37.9217C85.5106 43.6873 88.3995 48.5672 91.9898 53.0794C95.8305 57.9092 100.322 62.1373 104.781 66.3654C109.891 71.2119 115.101 75.9581 119.443 81.5566C125.27 89.0603 129.078 97.4664 129.913 106.992C130.898 118.173 128.042 128.35 121.229 137.341C120.211 138.695 119.058 139.948 117.956 141.235C117.89 141.319 117.806 141.369 117.723 141.436C117.739 141.469 117.789 141.486 117.839 141.503Z" fill="url(#paint0_linear_217_1073)"/>
</g>
<path d="M94.7443 156.909C94.8445 156.385 94.9614 155.843 95.0616 155.319C95.8131 151.109 98.0507 147.744 100.789 144.616C101.925 143.331 103.027 142.029 103.979 140.609C105.682 138.056 106.016 133.585 105.064 130.677C104.346 128.471 104.363 126.366 105.565 124.327C106.216 123.207 107.185 122.455 108.254 121.77C109.155 121.185 109.99 120.516 110.959 119.831C109.673 120.065 108.571 120.466 107.469 120.433C104.213 120.333 101.641 117.341 101.858 114.066C102.075 110.64 105.064 107.932 108.387 108.133C112.211 108.367 114.9 111.876 114.198 115.67C114.148 115.954 114.248 116.388 114.449 116.589C118.974 121.135 120.36 126.65 119.442 132.85C118.356 140.253 114.466 146.019 108.838 150.748C106.834 152.436 104.83 154.124 102.843 155.812C99.0693 159.004 96.481 162.998 95.0115 167.711C94.928 167.995 94.8278 168.279 94.6775 168.73C94.5439 168.43 94.4437 168.246 94.3769 168.062C92.5234 162.213 89.0834 157.55 84.1573 153.89C79.515 150.414 75.4572 146.336 72.535 141.256C70.3975 137.546 68.8445 133.619 68.928 129.257C69.0115 124.41 70.9152 120.416 74.806 117.441C74.9229 117.358 75.0064 117.258 75.1066 117.174C73.3198 113.146 74.0378 109.737 77.0937 107.682C79.682 105.944 83.1554 106.311 85.3429 108.567C87.6139 110.89 87.9312 114.483 86.0777 117.074C84.007 119.982 80.8175 120.65 77.077 119.046C77.2774 119.23 77.4444 119.464 77.6615 119.614C78.63 120.266 79.5818 120.951 80.5838 121.552C83.8901 123.508 85.2093 126.533 84.1406 130.209C82.9717 134.254 83.8734 139.493 86.946 142.215C90.937 145.749 92.6737 150.399 94.1432 155.269C94.3102 155.827 94.427 156.385 94.5773 156.943C94.6274 156.909 94.6775 156.909 94.7443 156.909Z" fill="url(#paint1_linear_217_1073)"/>
<path d="M47.2914 63.8467C48.4937 65.3675 49.529 66.9217 50.8148 68.2586C53.687 71.2501 56.6594 74.1413 59.6151 77.0491C62.8881 80.2578 66.0608 83.5501 68.2651 87.5944C69.4507 89.7502 70.2689 92.1066 71.2708 94.3628C71.4712 94.7973 71.3877 95.0981 70.9703 95.4156C67.5136 98.0227 65.1925 101.499 63.5727 105.443C59.3312 115.737 60.066 125.932 64.3408 136.026C66.1276 140.237 68.5656 144.047 71.6382 147.44C71.705 147.507 71.7551 147.607 71.7217 147.791C69.9015 146.538 68.0814 145.301 66.2779 144.014C60.5502 139.903 55.3068 135.257 51.1488 129.525C43.3505 118.762 39.0088 106.796 39.2593 93.3935C39.4096 84.3523 41.6806 75.7957 45.5046 67.6236C46.0891 66.3702 46.6902 65.1335 47.2914 63.8467Z" fill="url(#paint2_linear_217_1073)"/>
<path d="M1.77433 128.432C5.42946 127.141 8.96356 126.704 12.578 127.186C16.9288 127.774 21.0552 129 24.7809 131.369C25.0674 131.548 25.3542 131.745 25.5583 131.993C34.0926 142.229 44.8501 149.191 57.3555 153.503C62.3911 155.234 67.5235 156.73 72.6075 158.343C77.0038 159.749 81.238 161.492 85.002 164.194C86.268 165.112 87.4199 166.214 88.6206 167.233C88.5715 167.301 88.5226 167.385 88.4735 167.452C88.3733 167.454 88.2734 167.472 88.1892 167.423C86.0218 166.536 83.8691 166.651 81.6577 167.319C75.6058 169.163 69.4425 170.24 63.075 169.932C54.6352 169.522 46.6545 167.399 39.1653 163.498C29.9426 158.687 22.0983 152.217 15.9457 143.817C14.3951 141.717 13.0922 139.43 11.6243 137.279C9.11547 133.622 6.14554 130.406 1.77433 128.432Z" fill="#FFAE00" fill-opacity="0.3"/>
<path d="M2.07031 127.412C5.74404 126.175 9.28418 125.791 12.8911 126.326C17.2328 126.978 21.3407 128.264 25.0311 130.688C25.315 130.872 25.5989 131.072 25.7993 131.323C34.1821 141.684 44.8359 148.803 57.2765 153.299C62.2861 155.104 67.3959 156.675 72.4557 158.363C76.8307 159.833 81.0388 161.638 84.7626 164.396C86.0151 165.332 87.1506 166.451 88.3362 167.487C88.2861 167.554 88.236 167.638 88.1859 167.705C88.0857 167.705 87.9855 167.721 87.902 167.671C85.7479 166.752 83.5937 166.836 81.3728 167.471C75.2944 169.225 69.1159 170.211 62.7537 169.81C54.3208 169.276 46.3722 167.036 38.9412 163.025C29.7903 158.079 22.042 151.494 16.0138 143.004C14.4942 140.882 13.2251 138.576 11.789 136.403C9.33428 132.71 6.41199 129.451 2.07031 127.412Z" fill="url(#paint3_linear_217_1073)"/>
<g filter="url(#filter2_df_217_1073)">
<path d="M53.5231 151.744C52.9435 151.532 52.4089 151.314 51.9222 151.084C52.4595 151.308 52.9932 151.528 53.5231 151.744C59.389 153.891 69.8657 155.401 82.0254 162.574C78.9418 160.755 67.6017 157.503 53.5231 151.744Z" fill="#FFAE00" fill-opacity="0.3" shape-rendering="crispEdges"/>
</g>
<g filter="url(#filter3_df_217_1073)">
<path d="M10.9999 89.7416C11.8524 95.6701 17.4078 100.934 18.2171 116.426C18.0233 112.716 13.5638 116.426 10.9999 89.7416Z" fill="#FFAE00" fill-opacity="0.5" shape-rendering="crispEdges"/>
</g>
<g filter="url(#filter4_df_217_1073)">
<path d="M9.09185 82.2427C14.5049 84.8066 21.7503 89.4598 35.1115 97.3417C33.3072 93.828 24.5708 82.8124 9.09185 82.2427Z" fill="#FFAE00" fill-opacity="0.2"/>
</g>
<g filter="url(#filter5_d_217_1073)">
<path d="M9.06738 82.127C10.8208 82.4946 12.524 82.7119 14.1271 83.1965C20.8233 85.1852 26.8015 88.4274 31.8278 93.3407C32.9132 94.4103 33.8818 95.5968 34.8837 96.7666C35.0841 97.0006 35.201 97.3516 35.2177 97.6524C36.0192 112.961 41.8972 126.113 52.1335 137.377C57.9781 143.811 64.7912 149.058 72.3557 153.353C72.4559 153.404 72.5394 153.47 72.5895 153.637C72.2722 153.537 71.955 153.42 71.6544 153.32C66.4444 151.532 61.1843 149.927 56.0577 147.939C43.1997 142.959 32.3288 135.187 24.0629 124.041C19.3872 117.74 15.8137 110.888 14.2774 103.117C13.6428 99.9252 13.2755 96.6831 12.7077 93.4744C12.0398 89.6473 11.138 85.9039 9.11748 82.5113C9.08408 82.4946 9.10078 82.4278 9.06738 82.127Z" fill="url(#paint4_linear_217_1073)"/>
</g>
<g filter="url(#filter6_df_217_1073)">
<path d="M154.391 98.2754C159.625 94.7836 167.695 90.727 181.968 82.893C177.907 82.7129 163.468 84.8723 154.391 98.2754Z" fill="#FFAE00" fill-opacity="0.9" shape-rendering="crispEdges"/>
</g>
<path d="M189.755 125.672C184.211 128.781 180.838 133.627 177.632 138.624C171.72 147.849 164.239 155.503 154.754 161.018C143.399 167.636 131.159 170.661 118 169.09C115.278 168.772 112.59 168.071 109.935 167.385C106.962 166.633 104.023 165.631 100.984 167.218C100.934 167.118 100.884 167.018 100.834 166.917C102.02 165.865 103.138 164.728 104.408 163.776C107.747 161.219 111.588 159.631 115.529 158.344C120.689 156.656 125.899 155.169 131.059 153.498C138.924 150.957 146.271 147.381 152.968 142.501C157.677 139.075 161.768 134.998 165.525 130.552C165.959 130.034 166.527 129.583 167.111 129.249C170.919 127.009 174.976 125.455 179.352 124.837C182.775 124.352 186.181 124.569 189.755 125.672Z" fill="#FFAE00" fill-opacity="0.3"/>
<path d="M189.143 126.546C183.599 129.655 180.225 134.501 177.019 139.498C171.108 148.723 163.627 156.377 154.142 161.892C142.787 168.51 130.547 171.535 117.388 169.964C114.666 169.646 111.978 168.945 109.323 168.259C106.35 167.507 103.411 166.505 100.372 168.092C100.322 167.992 100.272 167.892 100.222 167.791C101.407 166.739 102.526 165.602 103.795 164.65C107.135 162.093 110.976 160.505 114.917 159.218C120.077 157.53 125.287 156.043 130.446 154.372C138.312 151.831 145.659 148.255 152.355 143.375C157.064 139.949 161.155 135.872 164.913 131.426C165.347 130.908 165.915 130.457 166.499 130.123C170.306 127.883 174.364 126.329 178.739 125.711C182.163 125.226 185.569 125.443 189.143 126.546Z" fill="url(#paint5_linear_217_1073)"/>
<g filter="url(#filter7_d_217_1073)">
<path d="M181.701 82.3877C180.816 84.6438 179.78 86.6994 179.213 88.8887C178.411 91.9971 177.827 95.1891 177.359 98.3811C176.24 106.018 173.502 113.037 169.561 119.639C164.518 128.095 157.688 134.78 149.589 140.278C142.943 144.79 135.629 147.832 128.031 150.305C124.023 151.609 119.999 152.896 115.974 154.199C115.557 154.333 115.123 154.433 114.655 154.4C115.974 153.714 117.31 153.046 118.613 152.344C127.396 147.598 135.145 141.565 141.34 133.66C147.786 125.421 151.944 116.129 153.797 105.835C154.231 103.428 154.365 100.971 154.666 98.5482C154.699 98.2474 154.833 97.8964 155.033 97.6792C161.061 90.6267 168.592 85.8972 177.493 83.357C178.845 82.9392 180.281 82.7052 181.701 82.3877Z" fill="url(#paint6_linear_217_1073)"/>
</g>
<g filter="url(#filter8_d_217_1073)">
<path d="M124.599 83.4134C126.67 81.3411 127.986 79.1018 130.073 77.1131C132.828 74.4726 136.372 72.0994 139.094 69.4255C140.647 67.888 142.016 66.1499 143.519 64.4453C143.803 65.0637 144.12 65.682 144.404 66.3338C147.259 72.5172 149.297 78.9346 150.198 85.6862C152.52 103.167 147.877 118.642 136.856 132.279C132.03 138.262 126.019 142.891 119.59 147.002C119.189 147.253 118.788 147.504 118.304 147.638C118.521 147.42 118.755 147.22 118.972 147.002C126.219 139.749 131.379 131.26 133.6 121.216C136.439 108.431 134.385 96.4989 126.57 85.7698C126.286 85.3854 125.985 85.0345 125.685 84.6668C125.384 84.3158 125.067 83.9649 124.599 83.4134Z" fill="url(#paint7_linear_217_1073)"/>
</g>
<g filter="url(#filter9_df_217_1073)">
<path d="M149.451 80.3389C150.512 86.3891 152.869 99.6162 148.121 112.246C148.685 108.574 150.495 98.2867 149.451 80.3389Z" fill="#FFAE00" fill-opacity="0.9" shape-rendering="crispEdges"/>
</g>
<g filter="url(#filter10_d_217_1073)">
<path d="M95.7959 138.314C96.5368 139.276 97.2452 140.005 97.7453 140.885C98.323 141.899 98.0156 143.074 97.1819 143.756C96.2062 144.55 94.9041 144.659 93.9883 144.008C93.2471 143.476 92.8726 142.76 93.0235 141.825C93.0711 141.5 93.1407 141.162 93.2408 140.851C93.7477 139.128 93.6884 138.925 92.2538 137.893C90.7103 136.778 90.1174 134.748 90.8567 133.067C91.654 131.308 93.5766 130.33 95.4798 130.715C97.203 131.072 98.5647 132.74 98.5486 134.592C98.5322 136.087 97.8512 137.258 96.5463 138.023C96.3205 138.17 96.0255 138.224 95.7959 138.314Z" fill="url(#paint8_linear_217_1073)"/>
<path d="M94.5502 137.101C95.1225 136.35 95.786 135.845 96.6445 135.651C98.9989 135.133 100.833 136.907 100.456 139.341C100.3 140.313 99.9095 141.193 99.2721 141.957C97.9843 143.498 96.3973 144.689 94.7453 145.79C94.6152 145.88 94.303 145.893 94.186 145.802C92.5469 144.611 90.8819 143.433 89.6331 141.802C88.9697 140.947 88.5665 139.976 88.5535 138.888C88.5275 137.425 89.1909 136.299 90.3746 135.82C91.6494 135.289 93.0803 135.587 94.0819 136.596C94.212 136.739 94.3551 136.894 94.5502 137.101Z" fill="url(#paint9_linear_217_1073)"/>
</g>
<ellipse cx="114.314" cy="19.182" rx="0.949626" ry="0.94962" fill="#FFAE00" fill-opacity="0.8"/>
<defs>
<filter id="filter0_d_217_1073" x="57.5947" y="17.2539" width="74.8887" height="117.716" filterUnits="userSpaceOnUse" color-interpolation-filters="sRGB">
<feFlood flood-opacity="0" result="BackgroundImageFix"/>
<feColorMatrix in="SourceAlpha" type="matrix" values="0 0 0 0 0 0 0 0 0 0 0 0 0 0 0 0 0 0 127 0" result="hardAlpha"/>
<feOffset/>
<feGaussianBlur stdDeviation="5"/>
<feColorMatrix type="matrix" values="0 0 0 0 0 0 0 0 0 0 0 0 0 0 0 0 0 0 0.7 0"/>
<feBlend mode="normal" in2="BackgroundImageFix" result="effect1_dropShadow_217_1073"/>
<feBlend mode="normal" in="SourceGraphic" in2="effect1_dropShadow_217_1073" result="shape"/>
</filter>
<filter id="filter1_d_217_1073" x="63.9961" y="0" width="71.1055" height="151.503" filterUnits="userSpaceOnUse" color-interpolation-filters="sRGB">
<feFlood flood-opacity="0" result="BackgroundImageFix"/>
<feColorMatrix in="SourceAlpha" type="matrix" values="0 0 0 0 0 0 0 0 0 0 0 0 0 0 0 0 0 0 127 0" result="hardAlpha"/>
<feOffset dy="5"/>
<feGaussianBlur stdDeviation="2.5"/>
<feComposite in2="hardAlpha" operator="out"/>
<feColorMatrix type="matrix" values="0 0 0 0 0 0 0 0 0 0 0 0 0 0 0 0 0 0 0.5 0"/>
<feBlend mode="normal" in2="BackgroundImageFix" result="effect1_dropShadow_217_1073"/>
<feBlend mode="normal" in="SourceGraphic" in2="effect1_dropShadow_217_1073" result="shape"/>
</filter>
<filter id="filter2_df_217_1073" x="47.9219" y="147.084" width="38.1035" height="23.4902" filterUnits="userSpaceOnUse" color-interpolation-filters="sRGB">
<feFlood flood-opacity="0" result="BackgroundImageFix"/>
<feColorMatrix in="SourceAlpha" type="matrix" values="0 0 0 0 0 0 0 0 0 0 0 0 0 0 0 0 0 0 127 0" result="hardAlpha"/>
<feOffset dy="4"/>
<feGaussianBlur stdDeviation="2"/>
<feComposite in2="hardAlpha" operator="out"/>
<feColorMatrix type="matrix" values="0 0 0 0 0 0 0 0 0 0 0 0 0 0 0 0 0 0 0.25 0"/>
<feBlend mode="normal" in2="BackgroundImageFix" result="effect1_dropShadow_217_1073"/>
<feBlend mode="normal" in="SourceGraphic" in2="effect1_dropShadow_217_1073" result="shape"/>
<feGaussianBlur stdDeviation="2" result="effect2_foregroundBlur_217_1073"/>
</filter>
<filter id="filter3_df_217_1073" x="0" y="79.7412" width="27.2168" height="46.6846" filterUnits="userSpaceOnUse" color-interpolation-filters="sRGB">
<feFlood flood-opacity="0" result="BackgroundImageFix"/>
<feColorMatrix in="SourceAlpha" type="matrix" values="0 0 0 0 0 0 0 0 0 0 0 0 0 0 0 0 0 0 127 0" result="hardAlpha"/>
<feOffset dx="-1"/>
<feGaussianBlur stdDeviation="5"/>
<feComposite in2="hardAlpha" operator="out"/>
<feColorMatrix type="matrix" values="0 0 0 0 0 0 0 0 0 0 0 0 0 0 0 0 0 0 0.5 0"/>
<feBlend mode="normal" in2="BackgroundImageFix" result="effect1_dropShadow_217_1073"/>
<feBlend mode="normal" in="SourceGraphic" in2="effect1_dropShadow_217_1073" result="shape"/>
<feGaussianBlur stdDeviation="2" result="effect2_foregroundBlur_217_1073"/>
</filter>
<filter id="filter4_df_217_1073" x="5.0918" y="77.2432" width="37.0195" height="25.0986" filterUnits="userSpaceOnUse" color-interpolation-filters="sRGB">
<feFlood flood-opacity="0" result="BackgroundImageFix"/>
<feColorMatrix in="SourceAlpha" type="matrix" values="0 0 0 0 0 0 0 0 0 0 0 0 0 0 0 0 0 0 127 0" result="hardAlpha"/>
<feOffset dx="2"/>
<feGaussianBlur stdDeviation="2.5"/>
<feColorMatrix type="matrix" values="0 0 0 0 0 0 0 0 0 0 0 0 0 0 0 0 0 0 0.5 0"/>
<feBlend mode="normal" in2="BackgroundImageFix" result="effect1_dropShadow_217_1073"/>
<feBlend mode="normal" in="SourceGraphic" in2="effect1_dropShadow_217_1073" result="shape"/>
<feGaussianBlur stdDeviation="2" result="effect2_foregroundBlur_217_1073"/>
</filter>
<filter id="filter5_d_217_1073" x="9.06738" y="82.127" width="63.5225" height="71.5107" filterUnits="userSpaceOnUse" color-interpolation-filters="sRGB">
<feFlood flood-opacity="0" result="BackgroundImageFix"/>
<feColorMatrix in="SourceAlpha" type="matrix" values="0 0 0 0 0 0 0 0 0 0 0 0 0 0 0 0 0 0 127 0" result="hardAlpha"/>
<feOffset/>
<feComposite in2="hardAlpha" operator="out"/>
<feColorMatrix type="matrix" values="0 0 0 0 0 0 0 0 0 0 0 0 0 0 0 0 0 0 0.5 0"/>
<feBlend mode="normal" in2="BackgroundImageFix" result="effect1_dropShadow_217_1073"/>
<feBlend mode="normal" in="SourceGraphic" in2="effect1_dropShadow_217_1073" result="shape"/>
</filter>
<filter id="filter6_df_217_1073" x="150.391" y="78.8828" width="35.5781" height="23.3926" filterUnits="userSpaceOnUse" color-interpolation-filters="sRGB">
<feFlood flood-opacity="0" result="BackgroundImageFix"/>
<feColorMatrix in="SourceAlpha" type="matrix" values="0 0 0 0 0 0 0 0 0 0 0 0 0 0 0 0 0 0 127 0" result="hardAlpha"/>
<feOffset/>
<feComposite in2="hardAlpha" operator="out"/>
<feColorMatrix type="matrix" values="0 0 0 0 0 0 0 0 0 0 0 0 0 0 0 0 0 0 0.5 0"/>
<feBlend mode="normal" in2="BackgroundImageFix" result="effect1_dropShadow_217_1073"/>
<feBlend mode="normal" in="SourceGraphic" in2="effect1_dropShadow_217_1073" result="shape"/>
<feGaussianBlur stdDeviation="2" result="effect2_foregroundBlur_217_1073"/>
</filter>
<filter id="filter7_d_217_1073" x="109.655" y="77.3877" width="77.0459" height="82.0186" filterUnits="userSpaceOnUse" color-interpolation-filters="sRGB">
<feFlood flood-opacity="0" result="BackgroundImageFix"/>
<feColorMatrix in="SourceAlpha" type="matrix" values="0 0 0 0 0 0 0 0 0 0 0 0 0 0 0 0 0 0 127 0" result="hardAlpha"/>
<feOffset/>
<feGaussianBlur stdDeviation="2.5"/>
<feComposite in2="hardAlpha" operator="out"/>
<feColorMatrix type="matrix" values="0 0 0 0 0 0 0 0 0 0 0 0 0 0 0 0 0 0 0.5 0"/>
<feBlend mode="normal" in2="BackgroundImageFix" result="effect1_dropShadow_217_1073"/>
<feBlend mode="normal" in="SourceGraphic" in2="effect1_dropShadow_217_1073" result="shape"/>
</filter>
<filter id="filter8_d_217_1073" x="108.304" y="64.4453" width="52.4775" height="103.192" filterUnits="userSpaceOnUse" color-interpolation-filters="sRGB">
<feFlood flood-opacity="0" result="BackgroundImageFix"/>
<feColorMatrix in="SourceAlpha" type="matrix" values="0 0 0 0 0 0 0 0 0 0 0 0 0 0 0 0 0 0 127 0" result="hardAlpha"/>
<feOffset dy="10"/>
<feGaussianBlur stdDeviation="5"/>
<feComposite in2="hardAlpha" operator="out"/>
<feColorMatrix type="matrix" values="0 0 0 0 0 0 0 0 0 0 0 0 0 0 0 0 0 0 0.5 0"/>
<feBlend mode="normal" in2="BackgroundImageFix" result="effect1_dropShadow_217_1073"/>
<feBlend mode="normal" in="SourceGraphic" in2="effect1_dropShadow_217_1073" result="shape"/>
</filter>
<filter id="filter9_df_217_1073" x="133.121" y="76.3389" width="22.8594" height="55.9072" filterUnits="userSpaceOnUse" color-interpolation-filters="sRGB">
<feFlood flood-opacity="0" result="BackgroundImageFix"/>
<feColorMatrix in="SourceAlpha" type="matrix" values="0 0 0 0 0 0 0 0 0 0 0 0 0 0 0 0 0 0 127 0" result="hardAlpha"/>
<feOffset dx="-5" dy="10"/>
<feGaussianBlur stdDeviation="5"/>
<feComposite in2="hardAlpha" operator="out"/>
<feColorMatrix type="matrix" values="0 0 0 0 0 0 0 0 0 0 0 0 0 0 0 0 0 0 0.7 0"/>
<feBlend mode="normal" in2="BackgroundImageFix" result="effect1_dropShadow_217_1073"/>
<feBlend mode="normal" in="SourceGraphic" in2="effect1_dropShadow_217_1073" result="shape"/>
<feGaussianBlur stdDeviation="2" result="effect2_foregroundBlur_217_1073"/>
</filter>
<filter id="filter10_d_217_1073" x="78.5527" y="120.632" width="31.9521" height="35.2324" filterUnits="userSpaceOnUse" color-interpolation-filters="sRGB">
<feFlood flood-opacity="0" result="BackgroundImageFix"/>
<feColorMatrix in="SourceAlpha" type="matrix" values="0 0 0 0 0 0 0 0 0 0 0 0 0 0 0 0 0 0 127 0" result="hardAlpha"/>
<feOffset/>
<feGaussianBlur stdDeviation="5"/>
<feComposite in2="hardAlpha" operator="out"/>
<feColorMatrix type="matrix" values="0 0 0 0 0 0 0 0 0 0 0 0 0 0 0 0 0 0 0.5 0"/>
<feBlend mode="normal" in2="BackgroundImageFix" result="effect1_dropShadow_217_1073"/>
<feBlend mode="normal" in="SourceGraphic" in2="effect1_dropShadow_217_1073" result="shape"/>
</filter>
<linearGradient id="paint0_linear_217_1073" x1="99.549" y1="0" x2="99.549" y2="141.503" gradientUnits="userSpaceOnUse">
<stop stop-color="#3AA1A3"/>
<stop offset="1" stop-color="#05364C"/>
</linearGradient>
<linearGradient id="paint1_linear_217_1073" x1="94.3174" y1="106.59" x2="94.3174" y2="168.73" gradientUnits="userSpaceOnUse">
<stop stop-color="#3AA1A3"/>
<stop offset="1" stop-color="#05364C"/>
</linearGradient>
<linearGradient id="paint2_linear_217_1073" x1="55.4907" y1="63.8467" x2="55.4907" y2="147.791" gradientUnits="userSpaceOnUse">
<stop stop-color="#3AA1A3"/>
<stop offset="1" stop-color="#05364C"/>
</linearGradient>
<linearGradient id="paint3_linear_217_1073" x1="45.2032" y1="126.091" x2="45.2032" y2="169.899" gradientUnits="userSpaceOnUse">
<stop stop-color="#3AA1A3"/>
<stop offset="1" stop-color="#05364C"/>
</linearGradient>
<linearGradient id="paint4_linear_217_1073" x1="40.8285" y1="82.127" x2="40.8285" y2="153.637" gradientUnits="userSpaceOnUse">
<stop stop-color="#3AA1A3"/>
<stop offset="1" stop-color="#05364C"/>
</linearGradient>
<linearGradient id="paint5_linear_217_1073" x1="144.682" y1="125.467" x2="144.682" y2="170.372" gradientUnits="userSpaceOnUse">
<stop stop-color="#3AA1A3"/>
<stop offset="1" stop-color="#05364C"/>
</linearGradient>
<linearGradient id="paint6_linear_217_1073" x1="148.178" y1="82.3877" x2="148.178" y2="154.406" gradientUnits="userSpaceOnUse">
<stop stop-color="#3AA1A3"/>
<stop offset="1" stop-color="#05364C"/>
</linearGradient>
<linearGradient id="paint7_linear_217_1073" x1="134.543" y1="64.4453" x2="134.543" y2="147.638" gradientUnits="userSpaceOnUse">
<stop stop-color="#3AA1A3"/>
<stop offset="1" stop-color="#05364C"/>
</linearGradient>
<linearGradient id="paint8_linear_217_1073" x1="96.1956" y1="130.898" x2="92.8079" y2="143.851" gradientUnits="userSpaceOnUse">
<stop stop-color="#3AA1A3"/>
<stop offset="1" stop-color="#05364C"/>
</linearGradient>
<linearGradient id="paint9_linear_217_1073" x1="94.529" y1="135.561" x2="94.529" y2="145.864" gradientUnits="userSpaceOnUse">
<stop stop-color="#FF0000"/>
<stop offset="1" stop-color="#990000"/>
</linearGradient>
</defs>
</svg>
