<svg width="985" height="898" viewBox="0 0 985 898" fill="none" xmlns="http://www.w3.org/2000/svg">
<g filter="url(#filter0_d_497_4974)">
<path d="M609.569 744.03C614.317 729.971 620.12 716.175 623.549 701.851C634.539 656.333 629.527 611.782 613.789 568.109C600.689 531.818 580.291 500.008 555.672 470.482C531.142 441.045 503.27 414.859 476.102 387.97C448.934 361.081 422.205 333.664 399.521 302.821C380.002 276.284 363.825 247.901 357.142 215.388C342.196 143.244 362.506 81.821 418.864 34.5455C456.847 2.5598 501.512 -8.68792 549.781 7.04131C591.281 20.5737 619.24 48.5173 629.264 92.1022C632.868 107.831 632.165 123.561 626.011 138.675C625.219 140.696 624.428 142.893 623.109 144.562C618.185 150.538 618.449 157.216 619.592 164.158C620.999 172.769 623.285 181.469 620.911 190.256C619.768 194.562 617.834 198.78 615.46 202.47C612.998 206.249 610.184 205.458 608.514 201.24C602.799 186.478 597.172 171.803 591.281 157.128C590.578 155.458 588.643 153.877 586.885 153.174C579.851 150.362 572.553 148.253 565.52 145.353C556.288 141.575 549.869 134.72 545.737 125.67C543.715 121.276 541.868 116.794 539.934 112.401C531.757 94.5626 516.547 86.3904 497.116 89.3781C474.08 92.893 457.111 105.547 445.505 125.23C431.877 148.253 428.536 173.297 433.547 199.395C439.35 229.711 454.561 255.37 473.464 279.095C493.687 304.491 517.338 326.722 540.813 348.954C567.718 374.437 595.15 399.393 618.01 428.831C648.695 468.286 668.741 512.486 673.137 562.573C678.325 621.36 663.29 674.874 627.417 722.15C622.054 729.268 615.987 735.858 610.184 742.624C609.833 743.064 609.393 743.327 608.953 743.679C609.041 743.855 609.305 743.942 609.569 744.03Z" fill="url(#paint0_linear_497_4974)"/>
</g>
<g filter="url(#filter1_d_497_4974)">
<path d="M487.972 825.022C488.5 822.266 489.115 819.421 489.643 816.664C493.599 794.527 505.381 776.834 519.8 760.387C525.779 753.63 531.582 746.784 536.593 739.316C545.562 725.891 547.32 702.385 542.308 687.095C538.528 675.495 538.616 664.424 544.946 653.703C548.375 647.816 553.475 643.861 559.102 640.258C563.85 637.183 568.246 633.668 573.345 630.065C566.575 631.295 560.772 633.404 554.969 633.229C537.824 632.701 524.284 616.972 525.427 599.749C526.57 581.735 542.308 567.5 559.805 568.554C579.939 569.785 594.095 588.238 590.402 608.185C590.138 609.679 590.666 611.963 591.721 613.018C615.548 636.919 622.846 665.917 618.01 698.518C612.295 737.446 591.809 767.762 562.179 792.63C551.628 801.505 541.077 810.38 530.615 819.255C510.744 836.039 497.116 857.041 489.379 881.821C488.939 883.315 488.412 884.808 487.62 887.181C486.917 885.599 486.389 884.633 486.038 883.666C476.278 852.911 458.166 828.394 432.229 809.15C407.786 790.872 386.421 769.431 371.035 742.718C359.781 723.21 351.604 702.56 352.043 679.625C352.483 654.142 362.506 633.141 382.992 617.499C383.608 617.06 384.047 616.533 384.575 616.093C375.167 594.916 378.948 576.99 395.038 566.182C408.666 557.043 426.954 558.976 438.471 570.839C450.429 583.053 452.1 601.946 442.34 615.566C431.438 630.856 414.644 634.371 394.95 625.935C396.005 626.902 396.884 628.132 398.027 628.923C403.126 632.35 408.138 635.953 413.413 639.116C430.822 649.397 437.768 665.302 432.141 684.634C425.986 705.899 430.734 733.448 446.912 747.762C467.926 766.343 477.07 790.793 484.807 816.398C485.686 819.332 486.302 822.266 487.093 825.2C487.357 825.022 487.62 825.022 487.972 825.022Z" fill="url(#paint1_linear_497_4974)"/>
</g>
<path d="M238.095 335.688C244.425 343.684 249.877 351.856 256.647 358.886C271.769 374.615 287.42 389.817 302.982 405.107C320.215 421.979 336.92 439.289 348.526 460.555C354.769 471.89 359.077 484.28 364.352 496.143C365.407 498.428 364.968 500.01 362.77 501.679C344.57 515.387 332.348 533.665 323.82 554.403C301.487 608.533 305.356 662.135 327.864 715.21C337.272 737.354 350.109 757.389 366.287 775.227C366.638 775.579 366.902 776.106 366.726 777.073C357.143 770.482 347.559 763.979 338.063 757.213C307.906 735.597 280.298 711.168 258.405 681.028C217.345 624.438 194.485 561.521 195.804 491.047C196.595 443.507 208.553 398.517 228.687 355.547C231.765 348.956 234.93 342.454 238.095 335.688Z" fill="url(#paint2_linear_497_4974)"/>
<path d="M0 669.959C19.343 663.457 37.9827 661.436 56.974 664.248C79.834 667.675 101.463 674.441 120.894 687.182C122.389 688.149 123.883 689.203 124.938 690.521C169.076 745.003 225.17 782.436 290.673 806.074C317.05 815.564 343.954 823.824 370.595 832.7C393.631 840.432 415.787 849.923 435.394 864.422C441.988 869.343 447.967 875.23 454.21 880.678C453.946 881.03 453.682 881.469 453.418 881.82C452.891 881.82 452.363 881.908 451.924 881.645C440.582 876.812 429.239 877.251 417.546 880.59C385.542 889.817 353.01 895.001 319.512 892.892C275.111 890.081 233.259 878.306 194.134 857.216C145.952 831.206 105.156 796.584 73.4156 751.945C65.4146 740.785 58.7325 728.658 51.1711 717.235C38.2465 697.815 22.8599 680.68 0 669.959Z" fill="url(#paint3_linear_497_4974)"/>
<path d="M36.8398 431.824C46.0717 433.757 55.0399 434.9 63.4805 437.448C98.7375 447.905 130.214 464.952 156.679 490.787C162.394 496.411 167.493 502.65 172.769 508.801C173.824 510.031 174.439 511.876 174.527 513.458C178.747 593.949 209.696 663.105 263.593 722.332C294.366 756.163 330.238 783.755 370.068 806.338C370.595 806.602 371.035 806.953 371.298 807.832C369.628 807.305 367.957 806.69 366.375 806.162C338.943 796.76 311.247 788.324 284.255 777.867C216.554 751.681 159.316 710.82 115.795 652.209C91.1762 619.081 72.3607 583.053 64.2718 542.192C60.9307 525.409 58.9964 508.361 56.007 491.49C52.4901 471.367 47.7423 451.683 37.1036 433.845C36.9278 433.757 37.0157 433.406 36.8398 431.824Z" fill="url(#paint4_linear_497_4974)"/>
<path d="M985 665.385C955.81 681.729 938.049 707.212 921.168 733.486C890.043 781.992 850.654 822.238 800.714 851.236C740.926 886.034 676.478 901.939 607.195 893.678C592.864 892.009 578.708 888.318 564.729 884.715C549.078 880.761 533.604 875.489 517.602 883.837C517.338 883.309 517.074 882.782 516.811 882.255C523.053 876.719 528.944 870.744 535.626 865.735C553.211 852.29 573.433 843.942 594.183 837.176C621.351 828.301 648.783 820.48 675.951 811.693C717.363 798.337 756.049 779.532 791.306 753.873C816.1 735.859 837.641 714.418 857.424 691.044C859.71 688.32 862.699 685.947 865.776 684.19C885.823 672.415 907.188 664.243 930.224 660.991C948.248 658.443 966.184 659.585 985 665.385Z" fill="url(#paint5_linear_497_4974)"/>
<path d="M945.787 433.227C941.127 445.089 935.676 455.898 932.686 467.409C928.466 483.753 925.389 500.537 922.927 517.321C917.036 557.479 902.617 594.385 881.867 629.095C855.314 673.559 819.354 708.708 776.711 737.618C741.718 761.344 703.207 777.336 663.203 790.342C642.101 797.196 620.912 803.962 599.722 810.816C597.524 811.519 595.238 812.046 592.776 811.87C599.722 808.268 606.756 804.753 613.614 801.062C659.862 776.106 700.658 744.384 733.277 702.82C767.215 659.499 789.108 610.642 798.868 556.512C801.154 543.858 801.857 530.941 803.44 518.2C803.615 516.618 804.319 514.772 805.374 513.63C837.114 476.548 876.767 451.68 923.63 438.323C930.752 436.126 938.313 434.896 945.787 433.227Z" fill="url(#paint6_linear_497_4974)"/>
<path d="M645.178 438.587C656.081 427.691 663.01 415.917 674 405.46C688.507 391.576 707.164 379.097 721.495 365.038C729.672 356.953 736.882 347.815 744.795 338.852C746.289 342.103 747.96 345.354 749.455 348.781C764.49 381.294 775.216 415.037 779.964 450.538C792.185 542.453 767.743 623.823 709.714 695.527C684.304 726.986 652.652 751.326 618.801 772.943C616.691 774.261 614.581 775.579 612.031 776.282C613.174 775.14 614.405 774.085 615.548 772.943C653.707 734.806 680.875 690.167 692.569 637.355C707.516 570.133 696.701 507.392 655.553 450.977C654.058 448.956 652.476 447.111 650.893 445.178C649.311 443.332 647.64 441.487 645.178 438.587Z" fill="url(#paint7_linear_497_4974)"/>
<g filter="url(#filter2_d_497_4974)">
<path d="M492.127 676.264C495.167 681.885 498.235 686.267 500.092 691.26C502.241 697.008 499.654 702.849 494.748 705.683C489.009 708.982 482.151 708.449 477.941 704.292C474.536 700.908 473.193 696.873 474.765 692.146C475.286 690.499 475.932 688.804 476.714 687.273C480.799 678.758 480.662 677.654 474.075 671.089C466.994 663.993 465.621 652.958 470.878 644.857C476.503 636.397 487.317 632.945 496.882 636.553C505.536 639.862 511.207 649.672 509.565 659.269C508.221 667.016 503.696 672.521 496.272 675.387C494.975 675.96 493.396 675.991 492.127 676.264Z" fill="url(#paint8_linear_497_4974)"/>
<path d="M487.578 707.889C490.592 703.94 494.085 701.285 498.605 700.264C511.002 697.541 520.659 706.868 518.673 719.667C517.851 724.773 515.796 729.403 512.44 733.42C505.659 741.521 497.304 747.785 488.605 753.572C487.92 754.048 486.277 754.117 485.66 753.64C477.03 747.376 468.264 741.181 461.689 732.603C458.196 728.109 456.072 723.003 456.004 717.284C455.867 709.591 459.36 703.668 465.593 701.149C472.305 698.358 479.839 699.924 485.112 705.234C485.797 705.983 486.551 706.8 487.578 707.889Z" fill="url(#paint9_linear_497_4974)"/>
</g>
<ellipse cx="591" cy="100.876" rx="5" ry="4.99317" fill="#FFAE00" fill-opacity="0.8"/>
<defs>
<filter id="filter0_d_497_4974" x="347.397" y="0" width="331.736" height="754.031" filterUnits="userSpaceOnUse" color-interpolation-filters="sRGB">
<feFlood flood-opacity="0" result="BackgroundImageFix"/>
<feColorMatrix in="SourceAlpha" type="matrix" values="0 0 0 0 0 0 0 0 0 0 0 0 0 0 0 0 0 0 127 0" result="hardAlpha"/>
<feOffset dy="5"/>
<feGaussianBlur stdDeviation="2.5"/>
<feComposite in2="hardAlpha" operator="out"/>
<feColorMatrix type="matrix" values="0 0 0 0 0 0 0 0 0 0 0 0 0 0 0 0 0 0 0.5 0"/>
<feBlend mode="normal" in2="BackgroundImageFix" result="effect1_dropShadow_497_4974"/>
<feBlend mode="normal" in="SourceGraphic" in2="effect1_dropShadow_497_4974" result="shape"/>
</filter>
<filter id="filter1_d_497_4974" x="347.026" y="560.441" width="277.396" height="336.74" filterUnits="userSpaceOnUse" color-interpolation-filters="sRGB">
<feFlood flood-opacity="0" result="BackgroundImageFix"/>
<feColorMatrix in="SourceAlpha" type="matrix" values="0 0 0 0 0 0 0 0 0 0 0 0 0 0 0 0 0 0 127 0" result="hardAlpha"/>
<feOffset dy="5"/>
<feGaussianBlur stdDeviation="2.5"/>
<feComposite in2="hardAlpha" operator="out"/>
<feColorMatrix type="matrix" values="0 0 0 0 0 0 0 0 0 0 0 0 0 0 0 0 0 0 0.5 0"/>
<feBlend mode="normal" in2="BackgroundImageFix" result="effect1_dropShadow_497_4974"/>
<feBlend mode="normal" in="SourceGraphic" in2="effect1_dropShadow_497_4974" result="shape"/>
</filter>
<filter id="filter2_d_497_4974" x="451" y="630.135" width="72.9326" height="128.83" filterUnits="userSpaceOnUse" color-interpolation-filters="sRGB">
<feFlood flood-opacity="0" result="BackgroundImageFix"/>
<feColorMatrix in="SourceAlpha" type="matrix" values="0 0 0 0 0 0 0 0 0 0 0 0 0 0 0 0 0 0 127 0" result="hardAlpha"/>
<feOffset/>
<feGaussianBlur stdDeviation="2.5"/>
<feComposite in2="hardAlpha" operator="out"/>
<feColorMatrix type="matrix" values="0 0 0 0 0 0 0 0 0 0 0 0 0 0 0 0 0 0 0.5 0"/>
<feBlend mode="normal" in2="BackgroundImageFix" result="effect1_dropShadow_497_4974"/>
<feBlend mode="normal" in="SourceGraphic" in2="effect1_dropShadow_497_4974" result="shape"/>
</filter>
<linearGradient id="paint0_linear_497_4974" x1="513.266" y1="0" x2="513.266" y2="744.03" gradientUnits="userSpaceOnUse">
<stop stop-color="#3AA1A3"/>
<stop offset="1" stop-color="#05364C"/>
</linearGradient>
<linearGradient id="paint1_linear_497_4974" x1="485.724" y1="560.441" x2="485.724" y2="887.181" gradientUnits="userSpaceOnUse">
<stop stop-color="#3AA1A3"/>
<stop offset="1" stop-color="#05364C"/>
</linearGradient>
<linearGradient id="paint2_linear_497_4974" x1="281.266" y1="335.688" x2="281.266" y2="777.073" gradientUnits="userSpaceOnUse">
<stop stop-color="#3AA1A3"/>
<stop offset="1" stop-color="#05364C"/>
</linearGradient>
<linearGradient id="paint3_linear_497_4974" x1="227.105" y1="663.012" x2="227.105" y2="893.36" gradientUnits="userSpaceOnUse">
<stop stop-color="#3AA1A3"/>
<stop offset="1" stop-color="#05364C"/>
</linearGradient>
<linearGradient id="paint4_linear_497_4974" x1="204.069" y1="431.824" x2="204.069" y2="807.832" gradientUnits="userSpaceOnUse">
<stop stop-color="#3AA1A3"/>
<stop offset="1" stop-color="#05364C"/>
</linearGradient>
<linearGradient id="paint5_linear_497_4974" x1="750.905" y1="659.709" x2="750.905" y2="895.823" gradientUnits="userSpaceOnUse">
<stop stop-color="#3AA1A3"/>
<stop offset="1" stop-color="#05364C"/>
</linearGradient>
<linearGradient id="paint6_linear_497_4974" x1="769.282" y1="433.227" x2="769.282" y2="811.904" gradientUnits="userSpaceOnUse">
<stop stop-color="#3AA1A3"/>
<stop offset="1" stop-color="#05364C"/>
</linearGradient>
<linearGradient id="paint7_linear_497_4974" x1="697.532" y1="338.852" x2="697.532" y2="776.282" gradientUnits="userSpaceOnUse">
<stop stop-color="#3AA1A3"/>
<stop offset="1" stop-color="#05364C"/>
</linearGradient>
<linearGradient id="paint8_linear_497_4974" x1="500.448" y1="638.106" x2="471.953" y2="702.486" gradientUnits="userSpaceOnUse">
<stop stop-color="#3AA1A3"/>
<stop offset="1" stop-color="#05364C"/>
</linearGradient>
<linearGradient id="paint9_linear_497_4974" x1="487.466" y1="699.787" x2="487.466" y2="753.965" gradientUnits="userSpaceOnUse">
<stop stop-color="#FF0000"/>
<stop offset="1" stop-color="#990000"/>
</linearGradient>
</defs>
</svg>
