<svg width="541" height="487" viewBox="0 0 541 487" fill="none" xmlns="http://www.w3.org/2000/svg">
<path d="M203.918 403C201.35 395.385 198.212 387.912 196.357 380.154C190.413 355.499 193.124 331.368 201.635 307.713C208.72 288.056 219.752 270.826 233.066 254.834C246.332 238.89 261.406 224.706 276.099 210.142C290.792 195.577 305.247 180.728 317.515 164.021C328.071 149.647 336.82 134.274 340.434 116.664C348.517 77.5874 337.533 44.3179 307.054 18.7114C286.512 1.3865 262.357 -4.70576 236.252 3.81389C213.808 11.1436 198.687 26.2791 193.266 49.8866C191.317 58.4063 191.697 66.9259 195.026 75.1124C195.454 76.2071 195.882 77.397 196.595 78.3013C199.258 81.5379 199.115 85.1551 198.497 88.9152C197.736 93.5796 196.5 98.2916 197.784 103.051C198.402 105.383 199.448 107.668 200.732 109.667C202.063 111.714 203.585 111.285 204.488 109.001C207.579 101.005 210.622 93.056 213.808 85.1075C214.189 84.2032 215.235 83.3465 216.186 82.9657C219.99 81.4427 223.936 80.3004 227.74 78.7297C232.733 76.6831 236.204 72.9706 238.439 68.0682C239.533 65.6885 240.531 63.2611 241.577 60.8813C246 51.2193 254.226 46.7929 264.734 48.4112C277.192 50.315 286.369 57.1688 292.646 67.8303C300.016 80.3004 301.823 93.8652 299.113 108.001C295.975 124.422 287.748 138.32 277.525 151.171C266.589 164.926 253.798 176.967 241.102 189.009C226.552 202.812 211.716 216.329 199.353 232.274C182.758 253.644 171.917 277.585 169.539 304.715C166.734 336.556 174.865 365.542 194.265 391.149C197.166 395.004 200.447 398.574 203.585 402.238C203.775 402.476 204.013 402.619 204.251 402.81C204.203 402.905 204.06 402.952 203.918 403Z" fill="url(#paint0_linear_1412_1916)"/>
<path d="M274.281 448.327C273.995 446.834 273.661 445.293 273.375 443.8C271.23 431.808 264.841 422.223 257.022 413.313C253.78 409.653 250.633 405.945 247.915 401.899C243.052 394.627 242.099 381.893 244.816 373.61C246.867 367.327 246.819 361.329 243.386 355.521C241.527 352.332 238.761 350.19 235.71 348.238C233.135 346.572 230.751 344.668 227.986 342.716C231.657 343.383 234.804 344.525 237.951 344.43C247.248 344.144 254.59 335.624 253.971 326.294C253.351 316.535 244.816 308.824 235.329 309.395C224.41 310.061 216.734 320.058 218.737 330.863C218.88 331.673 218.594 332.91 218.022 333.482C205.101 346.429 201.144 362.138 203.766 379.798C206.865 400.886 217.974 417.309 234.041 430.78C239.763 435.588 245.484 440.396 251.158 445.204C261.933 454.296 269.323 465.672 273.518 479.096C273.757 479.906 274.043 480.715 274.472 482C274.853 481.143 275.139 480.62 275.33 480.096C280.622 463.435 290.444 450.154 304.509 439.729C317.763 429.828 329.349 418.213 337.692 403.742C343.795 393.175 348.229 381.988 347.991 369.564C347.752 355.759 342.317 344.382 331.208 335.909C330.875 335.671 330.636 335.386 330.35 335.148C335.452 323.675 333.401 313.965 324.676 308.11C317.286 303.159 307.369 304.206 301.124 310.633C294.64 317.249 293.734 327.484 299.026 334.862C304.938 343.145 314.044 345.049 324.724 340.479C324.152 341.003 323.675 341.669 323.055 342.098C320.29 343.954 317.572 345.906 314.712 347.619C305.272 353.189 301.505 361.805 304.556 372.277C307.894 383.797 305.319 398.72 296.547 406.474C285.152 416.54 280.193 429.785 275.998 443.656C275.521 445.245 275.187 446.834 274.758 448.424C274.615 448.327 274.472 448.327 274.281 448.327Z" fill="url(#paint1_linear_1412_1916)"/>
<path d="M411.222 182C407.817 186.348 404.885 190.792 401.243 194.614C393.108 203.167 384.69 211.433 376.319 219.746C367.049 228.92 358.063 238.333 351.82 249.896C348.462 256.059 346.145 262.796 343.307 269.247C342.74 270.489 342.976 271.349 344.158 272.257C353.948 279.711 360.522 289.649 365.11 300.925C377.123 330.358 375.042 359.503 362.934 388.363C357.874 400.403 350.969 411.297 342.267 420.997C342.077 421.188 341.936 421.474 342.03 422C347.185 418.416 352.34 414.881 357.448 411.202C373.67 399.448 388.521 386.165 400.297 369.776C422.384 339.006 434.68 304.795 433.971 266.475C433.545 240.626 427.113 216.163 416.283 192.798C414.627 189.215 412.925 185.679 411.222 182Z" fill="url(#paint2_linear_1412_1916)"/>
<path d="M541 362.8C530.481 359.243 520.345 358.138 510.017 359.676C497.586 361.551 485.824 365.252 475.258 372.221C474.445 372.75 473.632 373.327 473.058 374.048C449.056 403.849 418.552 424.325 382.931 437.255C368.588 442.446 353.957 446.964 339.47 451.819C326.943 456.049 314.894 461.24 304.232 469.171C300.646 471.862 297.395 475.083 294 478.063C294.143 478.255 294.287 478.496 294.43 478.688C294.717 478.688 295.004 478.736 295.243 478.592C301.411 475.948 307.579 476.188 313.938 478.015C331.342 483.062 349.032 485.898 367.249 484.744C391.394 483.206 414.153 476.765 435.43 465.229C461.631 451.002 483.816 432.064 501.076 407.646C505.427 401.542 509.061 394.908 513.173 388.66C520.202 378.037 528.569 368.664 541 362.8Z" fill="url(#paint3_linear_1412_1916)"/>
<path d="M521 235C515.976 236.049 511.096 236.669 506.503 238.051C487.318 243.724 470.189 252.973 455.788 266.99C452.678 270.041 449.903 273.426 447.033 276.763C446.458 277.43 446.124 278.432 446.076 279.29C443.779 322.96 426.938 360.48 397.609 392.613C380.864 410.967 361.343 425.937 339.67 438.19C339.383 438.333 339.144 438.523 339 439C339.909 438.714 340.818 438.38 341.679 438.094C356.607 432.993 371.678 428.416 386.366 422.743C423.206 408.536 454.353 386.367 478.036 354.568C491.432 336.595 501.671 317.048 506.073 294.879C507.891 285.774 508.943 276.525 510.57 267.371C512.484 256.454 515.067 245.774 520.856 236.097C520.952 236.049 520.904 235.858 521 235Z" fill="url(#paint4_linear_1412_1916)"/>
<path d="M0 362.077C15.8986 370.937 25.5719 384.752 34.7662 398.996C51.7184 425.291 73.1718 447.109 100.372 462.829C132.935 481.693 168.037 490.315 205.772 485.837C213.577 484.932 221.287 482.932 228.901 480.978C237.425 478.835 245.854 475.977 254.569 480.502C254.713 480.216 254.856 479.93 255 479.645C251.6 476.643 248.392 473.404 244.752 470.689C235.175 463.4 224.161 458.875 212.859 455.207C198.062 450.396 183.121 446.156 168.324 441.392C145.769 434.151 124.699 423.957 105.496 410.047C91.9916 400.282 80.2592 388.658 69.4845 375.987C68.2394 374.51 66.6113 373.224 64.9352 372.271C54.0169 365.888 42.3803 361.458 29.8338 359.695C20.0169 358.314 10.2479 358.933 0 362.077Z" fill="url(#paint5_linear_1412_1916)"/>
<path d="M22 236C24.5081 242.422 27.442 248.273 29.051 254.505C31.3225 263.353 32.9788 272.439 34.3039 281.525C37.4745 303.265 45.2354 323.244 56.4035 342.035C70.6949 366.105 90.0498 385.134 113.001 400.784C131.836 413.628 152.563 422.286 174.095 429.327C185.452 433.037 196.857 436.7 208.262 440.411C209.445 440.791 210.675 441.077 212 440.982C208.262 439.031 204.476 437.128 200.785 435.13C175.893 421.62 153.935 404.447 136.379 381.946C118.112 358.494 106.329 332.045 101.076 302.741C99.8456 295.891 99.467 288.898 98.6152 282.001C98.5205 281.144 98.142 280.145 97.5741 279.527C80.4906 259.452 59.1482 245.99 33.9253 238.759C30.0921 237.57 26.0224 236.904 22 236Z" fill="url(#paint6_linear_1412_1916)"/>
<path d="M183.973 238.265C178.044 232.336 174.275 225.93 168.298 220.241C160.408 212.687 150.262 205.897 142.468 198.247C138.021 193.849 134.1 188.877 129.796 184C128.983 185.769 128.075 187.538 127.262 189.403C119.085 207.092 113.252 225.452 110.669 244.767C104.023 294.777 117.316 339.049 148.875 378.062C162.694 395.178 179.909 408.422 198.318 420.183C199.466 420.9 200.613 421.618 202 422C201.378 421.378 200.709 420.805 200.087 420.183C179.335 399.433 164.559 375.146 158.2 346.412C150.071 309.837 155.952 275.7 178.331 245.006C179.143 243.906 180.004 242.902 180.865 241.851C181.726 240.847 182.634 239.843 183.973 238.265Z" fill="url(#paint7_linear_1412_1916)"/>
<circle cx="4.5" cy="4.5" r="4.5" transform="matrix(-1 0 0 1 218 51)" fill="white"/>
<path d="M270.115 345.43C275.306 343.473 281.173 345.346 284.226 349.936C287.078 354.332 286.334 360.32 282.491 364.171C282.34 364.322 282.195 364.469 282.056 364.61C286.185 366.955 289 371.624 289 377C289 384.732 283.18 391 276 391C268.82 391 263 384.732 263 377C263 372.279 265.171 368.103 268.496 365.567C265.619 363.876 263.836 361.233 263.232 357.757C262.341 352.55 265.419 347.226 270.115 345.43Z" fill="url(#paint8_linear_1412_1916)"/>
<defs>
<linearGradient id="paint0_linear_1412_1916" x1="256" y1="0" x2="256" y2="403" gradientUnits="userSpaceOnUse">
<stop stop-color="#3AA1A3"/>
<stop offset="1" stop-color="#05364C"/>
</linearGradient>
<linearGradient id="paint1_linear_1412_1916" x1="275.5" y1="305" x2="275.5" y2="482" gradientUnits="userSpaceOnUse">
<stop stop-color="#3AA1A3"/>
<stop offset="1" stop-color="#05364C"/>
</linearGradient>
<linearGradient id="paint2_linear_1412_1916" x1="388" y1="182" x2="388" y2="422" gradientUnits="userSpaceOnUse">
<stop stop-color="#3AA1A3"/>
<stop offset="1" stop-color="#05364C"/>
</linearGradient>
<linearGradient id="paint3_linear_1412_1916" x1="417.5" y1="359" x2="417.5" y2="485" gradientUnits="userSpaceOnUse">
<stop stop-color="#3AA1A3"/>
<stop offset="1" stop-color="#05364C"/>
</linearGradient>
<linearGradient id="paint4_linear_1412_1916" x1="430" y1="235" x2="430" y2="439" gradientUnits="userSpaceOnUse">
<stop stop-color="#3AA1A3"/>
<stop offset="1" stop-color="#05364C"/>
</linearGradient>
<linearGradient id="paint5_linear_1412_1916" x1="127.5" y1="359" x2="127.5" y2="487" gradientUnits="userSpaceOnUse">
<stop stop-color="#3AA1A3"/>
<stop offset="1" stop-color="#05364C"/>
</linearGradient>
<linearGradient id="paint6_linear_1412_1916" x1="117" y1="236" x2="117" y2="441" gradientUnits="userSpaceOnUse">
<stop stop-color="#3AA1A3"/>
<stop offset="1" stop-color="#05364C"/>
</linearGradient>
<linearGradient id="paint7_linear_1412_1916" x1="155.5" y1="184" x2="155.5" y2="422" gradientUnits="userSpaceOnUse">
<stop stop-color="#3AA1A3"/>
<stop offset="1" stop-color="#05364C"/>
</linearGradient>
<linearGradient id="paint8_linear_1412_1916" x1="276" y1="344.66" x2="276" y2="391" gradientUnits="userSpaceOnUse">
<stop stop-color="#3AA1A3"/>
<stop offset="1" stop-color="#05364C"/>
</linearGradient>
</defs>
</svg>
