<svg width="1459" height="1419" viewBox="0 0 1459 1419" fill="none" xmlns="http://www.w3.org/2000/svg">
<rect width="1459" height="1419" rx="80" fill="white"/>
<g filter="url(#filter0_d_156_665)">
<path d="M799 602C786.167 585.167 756.5 551.5 716 510.5C694.5 491.5 647.1 447.8 639.5 433C625.333 415.5 611 391.5 595 358L585 324.5L583 312.5C583 312.5 582 301.5 582 290C582 274.492 589 257.5 589 257.5C589 257.5 583.616 301.397 593 331.5C603 368.5 619 394 632.5 413C639.5 424.76 706.5 493 706.5 493L794 584L848 656L871 770L865.5 772C863.333 748.833 856.8 703 848 689C841.667 672.333 823.015 633.5 799 602Z" fill="#FFAE00" fill-opacity="0.9"/>
</g>
<g filter="url(#filter1_df_156_665)">
<path d="M235.43 790.212C254.675 783.417 273.282 781.119 292.313 783.655C315.221 786.75 336.948 793.206 356.564 805.678C358.073 806.624 359.583 807.657 360.657 808.962C405.593 862.862 462.233 899.517 528.077 922.221C554.591 931.335 581.614 939.209 608.382 947.704C631.53 955.107 653.824 964.284 673.642 978.512C680.308 983.342 686.373 989.149 692.695 994.512C692.436 994.868 692.179 995.312 691.921 995.668C691.393 995.675 690.867 995.771 690.424 995.514C679.012 990.842 667.677 991.448 656.034 994.964C624.169 1004.67 591.718 1010.34 558.192 1008.72C513.754 1006.56 471.734 995.388 432.302 974.848C383.742 949.514 342.44 915.449 310.045 871.22C301.881 860.164 295.021 848.121 287.292 836.794C274.082 817.54 258.445 800.61 235.43 790.212Z" fill="#FFAE00" fill-opacity="0.3" shape-rendering="crispEdges"/>
</g>
<g filter="url(#filter2_d_156_665)">
<path d="M846.569 859.036C851.317 844.957 857.12 831.142 860.549 816.799C871.539 771.219 866.527 726.607 850.789 682.874C837.689 646.533 817.291 614.68 792.672 585.114C768.142 555.636 740.27 529.414 713.102 502.489C685.934 475.563 659.205 448.109 636.521 417.223C617.002 390.65 600.825 362.228 594.142 329.67C579.196 257.428 599.506 195.921 655.864 148.581C693.847 116.552 738.512 105.288 786.781 121.039C828.281 134.59 856.24 162.572 866.264 206.216C869.868 221.967 869.165 237.718 863.011 252.853C862.219 254.876 861.428 257.076 860.109 258.748C855.185 264.732 855.449 271.419 856.592 278.371C857.999 286.994 860.285 295.705 857.911 304.504C856.768 308.816 854.834 313.04 852.46 316.735C849.998 320.519 847.184 319.727 845.514 315.504C839.799 300.721 834.172 286.026 828.281 271.331C827.578 269.659 825.643 268.075 823.885 267.371C816.851 264.556 809.553 262.444 802.52 259.54C793.288 255.756 786.869 248.893 782.737 239.83C780.715 235.43 778.868 230.942 776.934 226.543C768.757 208.68 753.547 200.497 734.116 203.489C711.08 207.008 694.111 219.679 682.505 239.39C668.877 262.444 665.536 287.522 670.547 313.656C676.35 344.013 691.561 369.707 710.464 393.465C730.687 418.895 754.338 441.158 777.813 463.42C804.718 488.938 832.15 513.928 855.01 543.405C885.695 582.914 905.741 627.175 910.137 677.331C915.325 736.198 900.29 789.785 864.417 837.126C859.054 844.253 852.987 850.853 847.184 857.628C846.833 858.068 846.393 858.332 845.953 858.684C846.041 858.86 846.305 858.948 846.569 859.036Z" fill="url(#paint0_linear_156_665)"/>
</g>
<g filter="url(#filter3_d_156_665)">
<path d="M724.972 940.133C725.5 937.373 726.115 934.524 726.643 931.764C730.599 909.596 742.381 891.879 756.8 875.409C762.779 868.643 768.582 861.788 773.593 854.309C782.562 840.866 784.32 817.328 779.308 802.017C775.528 790.402 775.616 779.315 781.946 768.58C785.375 762.684 790.475 758.724 796.102 755.117C800.85 752.037 805.246 748.517 810.345 744.909C803.575 746.141 797.772 748.253 791.969 748.077C774.824 747.549 761.284 731.799 762.427 714.552C763.57 696.513 779.308 682.258 796.805 683.314C816.939 684.546 831.095 703.025 827.402 722.999C827.138 724.495 827.666 726.783 828.721 727.839C852.548 751.773 859.846 780.811 855.01 813.456C849.295 852.437 828.809 882.794 799.179 907.696C788.628 916.584 778.077 925.471 767.615 934.358C747.744 951.165 734.116 972.195 726.379 997.009C725.939 998.505 725.412 1000 724.62 1002.38C723.917 1000.79 723.389 999.825 723.038 998.857C713.278 968.06 695.166 943.509 669.229 924.239C644.786 905.936 623.421 884.466 608.035 857.716C596.781 838.182 588.604 817.504 589.043 794.537C589.483 769.02 599.506 747.989 619.992 732.326C620.608 731.887 621.047 731.359 621.575 730.919C612.167 709.712 615.948 691.762 632.038 680.939C645.666 671.787 663.954 673.723 675.471 685.602C687.429 697.833 689.1 716.752 679.34 730.391C668.438 745.701 651.644 749.221 631.95 740.774C633.005 741.742 633.884 742.974 635.027 743.766C640.126 747.197 645.138 750.805 650.413 753.973C667.822 764.268 674.768 780.195 669.141 799.553C662.986 820.847 667.734 848.434 683.912 862.767C704.926 881.374 714.07 905.857 721.807 931.497C722.686 934.435 723.302 937.373 724.093 940.311C724.357 940.133 724.62 940.133 724.972 940.133Z" fill="url(#paint1_linear_156_665)"/>
</g>
<g filter="url(#filter4_d_156_665)">
<path d="M475.095 450.133C481.425 458.14 486.877 466.324 493.647 473.363C508.769 489.114 524.42 504.336 539.982 519.647C557.215 536.542 573.92 553.876 585.526 575.171C591.769 586.522 596.077 598.929 601.352 610.808C602.407 613.096 601.968 614.68 599.77 616.352C581.57 630.078 569.348 648.381 560.82 669.147C538.487 723.351 542.356 777.027 564.864 830.174C574.272 852.349 587.109 872.411 603.287 890.274C603.638 890.625 603.902 891.153 603.726 892.121C594.143 885.522 584.559 879.01 575.063 872.235C544.906 850.589 517.298 826.127 495.405 795.945C454.345 739.278 431.485 676.275 432.804 605.704C433.595 558.1 445.553 513.048 465.687 470.019C468.765 463.42 471.93 456.908 475.095 450.133Z" fill="url(#paint2_linear_156_665)"/>
</g>
<path d="M237 784.858C256.343 778.347 274.983 776.323 293.974 779.139C316.834 782.571 338.463 789.346 357.894 802.105C359.389 803.073 360.883 804.129 361.938 805.449C406.076 860.004 462.17 897.489 527.673 921.159C554.05 930.663 580.954 938.934 607.595 947.821C630.631 955.565 652.787 965.068 672.394 979.587C678.988 984.514 684.967 990.41 691.21 995.865C690.946 996.217 690.682 996.657 690.418 997.009C689.891 997.009 689.363 997.097 688.924 996.833C677.582 991.994 666.239 992.434 654.546 995.777C622.542 1005.02 590.01 1010.21 556.512 1008.1C512.111 1005.28 470.259 993.49 431.134 972.371C382.952 946.325 342.156 911.656 310.416 866.956C302.415 855.781 295.732 843.638 288.171 832.199C275.246 812.752 259.86 795.594 237 784.858Z" fill="url(#paint3_linear_156_665)"/>
<g filter="url(#filter5_df_156_665)">
<path d="M507.929 912.98C504.877 911.864 502.062 910.715 499.5 909.501C502.329 910.679 505.139 911.839 507.929 912.98C538.814 924.281 593.976 932.232 658 970C641.764 960.423 582.056 943.3 507.929 912.98Z" fill="#FFAE00" fill-opacity="0.3" shape-rendering="crispEdges"/>
</g>
<g filter="url(#filter6_df_156_665)">
<path d="M284 586.5C288.489 617.716 317.739 645.433 322.001 727C320.98 707.467 297.5 727 284 586.5Z" fill="#FFAE00" fill-opacity="0.5" shape-rendering="crispEdges"/>
</g>
<g filter="url(#filter7_df_156_665)">
<path d="M274 547.001C302.501 560.5 340.65 585.001 411 626.501C401.5 608 355.5 550 274 547.001Z" fill="#FFAE00" fill-opacity="0.2"/>
</g>
<g filter="url(#filter8_d_156_665)">
<path d="M273.84 546.397C283.072 548.333 292.04 549.477 300.48 552.029C335.738 562.5 367.214 579.571 393.679 605.441C399.394 611.072 404.493 617.32 409.769 623.479C410.824 624.711 411.439 626.559 411.527 628.143C415.747 708.744 446.696 777.995 500.593 837.302C531.366 871.179 567.238 898.809 607.068 921.423C607.595 921.687 608.035 922.039 608.298 922.919C606.628 922.391 604.957 921.775 603.375 921.247C575.943 911.832 548.247 903.385 521.255 892.914C453.554 866.692 396.316 825.775 352.795 767.084C328.176 733.91 309.361 697.833 301.272 656.917C297.931 640.11 295.996 623.039 293.007 606.145C289.49 585.994 284.742 566.284 274.104 548.421C273.928 548.333 274.016 547.981 273.84 546.397Z" fill="url(#paint4_linear_156_665)"/>
</g>
<g filter="url(#filter9_df_156_665)">
<path d="M1039 631.425C1066.56 613.04 1109.05 591.681 1184.2 550.433C1162.82 549.485 1086.79 560.855 1039 631.425Z" fill="#FFAE00" fill-opacity="0.9" shape-rendering="crispEdges"/>
</g>
<g filter="url(#filter10_df_156_665)">
<path d="M1225.19 775.684C1196 792.05 1178.24 817.568 1161.36 843.878C1130.23 892.45 1090.84 932.751 1040.9 961.789C981.115 996.634 916.668 1012.56 847.385 1004.29C833.053 1002.62 818.898 998.922 804.918 995.314C789.268 991.354 773.793 986.075 757.791 994.434C757.528 993.906 757.264 993.378 757 992.85C763.243 987.307 769.133 981.323 775.816 976.308C793.4 962.845 813.622 954.485 834.372 947.71C861.54 938.823 888.972 930.991 916.14 922.192C957.552 908.817 996.238 889.987 1031.5 864.293C1056.29 846.254 1077.83 824.784 1097.61 801.378C1099.9 798.65 1102.89 796.274 1105.97 794.514C1126.01 782.723 1147.38 774.54 1170.41 771.284C1188.44 768.732 1206.37 769.876 1225.19 775.684Z" fill="#FFAE00" fill-opacity="0.3" shape-rendering="crispEdges"/>
</g>
<path d="M1222 780.282C1192.81 796.649 1175.05 822.167 1158.17 848.477C1127.04 897.049 1087.65 937.35 1037.71 966.387C977.926 1001.23 913.478 1017.16 844.195 1008.89C829.864 1007.22 815.708 1003.52 801.729 999.913C786.078 995.953 770.604 990.673 754.602 999.033C754.338 998.505 754.074 997.977 753.811 997.449C760.053 991.905 765.944 985.922 772.626 980.906C790.211 967.443 810.433 959.084 831.183 952.309C858.351 943.421 885.783 935.59 912.951 926.791C954.363 913.416 993.049 894.585 1028.31 868.891C1053.1 850.853 1074.64 829.382 1094.42 805.976C1096.71 803.249 1099.7 800.873 1102.78 799.113C1122.82 787.322 1144.19 779.138 1167.22 775.883C1185.25 773.331 1203.18 774.475 1222 780.282Z" fill="url(#paint5_linear_156_665)"/>
<g filter="url(#filter11_d_156_665)">
<path d="M1182.79 547.805C1178.13 559.684 1172.68 570.507 1169.69 582.034C1165.47 598.401 1162.39 615.207 1159.93 632.014C1154.04 672.227 1139.62 709.184 1118.87 743.941C1092.31 788.465 1056.35 823.663 1013.71 852.612C978.718 876.37 940.207 892.385 900.203 905.408C879.101 912.271 857.912 919.047 836.722 925.91C834.524 926.614 832.238 927.142 829.776 926.966C836.722 923.359 843.756 919.839 850.614 916.143C896.862 891.153 937.658 859.388 970.277 817.767C1004.22 774.386 1026.11 725.462 1035.87 671.259C1038.15 658.588 1038.86 645.653 1040.44 632.894C1040.62 631.31 1041.32 629.462 1042.37 628.318C1074.11 591.185 1113.77 566.283 1160.63 552.908C1167.75 550.708 1175.31 549.477 1182.79 547.805Z" fill="url(#paint6_linear_156_665)"/>
</g>
<g filter="url(#filter12_d_156_665)">
<path d="M882.178 553.173C893.081 542.262 900.01 530.471 911 520C925.507 506.097 944.164 493.602 958.495 479.523C966.672 471.427 973.882 462.276 981.795 453.301C983.289 456.557 984.96 459.812 986.455 463.244C1001.49 495.801 1012.22 529.591 1016.96 565.14C1029.19 657.18 1004.74 738.662 946.714 810.464C921.304 841.966 889.652 866.34 855.801 887.986C853.691 889.306 851.581 890.626 849.031 891.33C850.174 890.186 851.405 889.13 852.548 887.986C890.707 849.797 917.875 805.096 929.569 752.213C944.516 684.898 933.701 622.071 892.553 565.58C891.058 563.556 889.476 561.708 887.893 559.772C886.311 557.924 884.64 556.077 882.178 553.173Z" fill="url(#paint7_linear_156_665)"/>
</g>
<g filter="url(#filter13_df_156_665)">
<path d="M1013 537C1018.59 568.856 1031 638.5 1006 705C1008.97 685.667 1018.5 631.5 1013 537Z" fill="#FFAE00" fill-opacity="0.9" shape-rendering="crispEdges"/>
</g>
<g filter="url(#filter14_d_156_665)">
<path d="M730.484 842.26C734.385 847.327 738.114 851.164 740.748 855.801C743.789 861.136 742.171 867.325 737.781 870.913C732.644 875.096 725.788 875.672 720.966 872.239C717.063 869.442 715.092 865.67 715.886 860.746C716.137 859.035 716.503 857.256 717.031 855.617C719.699 846.545 719.387 845.477 711.834 840.047C703.707 834.171 700.585 823.486 704.478 814.635C708.676 805.371 718.798 800.223 728.819 802.251C737.892 804.131 745.062 812.914 744.977 822.662C744.891 830.535 741.305 836.702 734.434 840.728C733.246 841.503 731.692 841.787 730.484 842.26Z" fill="url(#paint8_linear_156_665)"/>
<path d="M723.919 835.861C726.933 831.907 730.426 829.248 734.946 828.226C747.343 825.499 757 834.839 755.014 847.655C754.192 852.769 752.137 857.404 748.781 861.427C742.001 869.539 733.645 875.812 724.947 881.606C724.262 882.084 722.618 882.152 722.002 881.675C713.372 875.402 704.605 869.199 698.03 860.609C694.537 856.109 692.414 850.996 692.345 845.269C692.208 837.566 695.701 831.634 701.934 829.112C708.646 826.317 716.18 827.885 721.454 833.202C722.139 833.952 722.892 834.77 723.919 835.861Z" fill="url(#paint9_linear_156_665)"/>
</g>
<circle cx="828" cy="215" r="5" fill="#FFAE00" fill-opacity="0.8"/>
<g clip-path="url(#clip0_156_665)">
<g filter="url(#filter15_i_156_665)">
<path d="M909.92 1116.35C911.317 1114.83 912.774 1113.31 914.17 1111.73C926.191 1098.32 940.944 1090.01 959.158 1088.73C969.175 1088 978.95 1089.52 987.996 1094.19C997.345 1099.05 1003.36 1106.76 1006.39 1116.83C1006.82 1118.29 1007.18 1119.68 1007.79 1121.75C1009.24 1119.68 1010.4 1118.11 1011.61 1116.53C1024.24 1099.6 1040.88 1089.82 1062.12 1088.61C1072.75 1088 1082.95 1089.95 1091.99 1095.89C1104.74 1104.27 1109.48 1117.01 1109.72 1131.52C1110.09 1149.66 1109.84 1167.87 1109.97 1186.08C1110.03 1200.04 1110.15 1213.93 1110.27 1227.89C1110.27 1229.9 1110.57 1231.96 1111.06 1233.9C1112.39 1239.24 1115.67 1242.76 1121.08 1244.22C1122.65 1244.64 1124.29 1244.76 1125.75 1245.43C1126.6 1245.8 1127.09 1246.95 1127.75 1247.74C1126.96 1248.28 1126.18 1248.83 1125.33 1249.32C1125.02 1249.5 1124.54 1249.32 1124.11 1249.32C1104.26 1249.32 1084.47 1249.32 1064.61 1249.32C1063.34 1249.32 1061.64 1250.04 1061.34 1247.74C1061.03 1245.49 1062.67 1245.43 1064.13 1245.13C1074.33 1242.94 1078.03 1239.06 1078.64 1228.68C1079.18 1219.64 1079.06 1210.54 1079.06 1201.43C1079.12 1182.01 1079.18 1162.65 1078.94 1143.23C1078.88 1137.83 1078.27 1132.31 1076.94 1127.09C1073.66 1114.4 1064.07 1107.12 1050.95 1106.45C1032.8 1105.54 1017.81 1116.65 1010.09 1131.82C1009.61 1132.73 1009.55 1133.95 1009.55 1135.04C1009.55 1163.74 1009.55 1192.39 1009.61 1221.1C1009.61 1224.31 1009.79 1227.59 1010.16 1230.74C1010.94 1238.94 1014.83 1243 1022.84 1244.82C1024.48 1245.19 1027.64 1244.22 1027.22 1247.56C1026.79 1250.77 1024 1249.19 1022.36 1249.19C1002.93 1249.32 983.503 1249.26 964.075 1249.32C963.468 1249.32 962.8 1249.5 962.254 1249.26C961.647 1249.01 960.615 1248.41 960.675 1247.98C960.736 1247.13 961.283 1246.28 961.708 1245.49C961.829 1245.31 962.254 1245.31 962.558 1245.31C975.428 1242.94 977.796 1236.51 977.978 1225.71C978.282 1203.62 978.282 1181.47 978.282 1159.37C978.282 1151.18 978.221 1142.99 977.675 1134.86C977.432 1130.91 976.339 1126.85 974.943 1123.14C970.754 1111.92 961.586 1107.18 950.354 1106.57C932.93 1105.6 919.999 1113.43 911.378 1128.36C910.224 1130.37 909.617 1132.91 909.617 1135.22C909.496 1164.53 909.556 1193.79 909.617 1223.1C909.617 1225.53 909.799 1227.95 910.042 1230.38C910.831 1238.7 914.535 1242.82 922.731 1244.89C924.37 1245.31 927.466 1244.46 927.041 1247.74C926.616 1250.71 923.945 1249.26 922.306 1249.26C902.878 1249.38 883.45 1249.38 864.022 1249.32C862.99 1249.32 861.351 1248.59 861.108 1247.86C860.44 1245.8 862.201 1245.55 863.78 1245.25C873.797 1243.06 877.44 1239.18 878.168 1228.98C878.715 1221.03 878.654 1213.02 878.654 1205.07C878.715 1179.52 878.654 1153.97 878.654 1128.42C878.654 1125.09 878.472 1121.75 877.986 1118.47C876.954 1111.92 873.129 1107.55 866.876 1105.3C865.54 1104.81 864.083 1104.63 862.869 1103.97C862.08 1103.54 861.108 1102.51 861.169 1101.78C861.169 1101.05 862.262 1099.96 863.051 1099.78C870.519 1097.96 878.047 1096.38 885.514 1094.68C892.436 1093.1 899.296 1091.46 906.156 1089.82C909.192 1089.1 909.617 1089.4 909.617 1092.68C909.617 1100.45 909.617 1108.21 909.617 1115.98C909.496 1116.1 909.678 1116.22 909.92 1116.35Z" fill="url(#paint10_linear_156_665)"/>
</g>
<g filter="url(#filter16_i_156_665)">
<path d="M297.522 1031.99C295.761 1031.99 294.669 1031.99 293.576 1031.99C270.323 1031.99 247.071 1031.75 223.818 1032.11C216.411 1032.23 208.883 1033.38 201.719 1035.2C188.18 1038.66 178.284 1047.16 171.363 1059.18C169.785 1061.91 168.206 1064.58 166.931 1067.43C165.96 1069.62 164.564 1070.22 162.196 1069.37C162.924 1053.9 163.653 1038.42 164.442 1022.52C165.535 1022.46 166.567 1022.34 167.66 1022.34C225.579 1022.34 283.558 1022.28 341.477 1022.34C342.57 1022.34 343.663 1022.82 344.816 1023.07C344.391 1024.04 344.088 1025.07 343.481 1025.92C321.746 1058.27 299.95 1090.61 278.276 1123.02C256.784 1155.19 235.353 1187.41 213.922 1219.64C209.672 1226.01 205.544 1232.44 201.112 1239.24C202.569 1239.3 203.48 1239.42 204.451 1239.42C228.918 1239.42 253.385 1239.48 277.851 1239.42C288.901 1239.42 299.829 1238.21 310.332 1234.33C323.082 1229.59 332.492 1220.91 340.02 1209.93C341.599 1207.62 342.995 1205.07 344.695 1202.83C345.424 1201.86 346.759 1201.31 347.791 1200.58C348.095 1200.83 348.338 1201.07 348.641 1201.31C348.156 1204.04 347.731 1206.77 347.245 1209.5C344.999 1221.7 342.631 1233.9 340.506 1246.16C340.081 1248.71 339.049 1249.32 336.56 1249.32C285.683 1249.26 234.807 1249.26 183.991 1249.26C175.006 1249.26 166.021 1249.32 156.975 1249.26C155.942 1249.26 154.971 1248.71 153.939 1248.47C154.303 1247.56 154.546 1246.58 155.032 1245.8C196.923 1183.23 238.753 1120.59 280.583 1057.9C285.623 1050.32 290.601 1042.73 295.579 1035.14C296.126 1034.29 296.611 1033.44 297.522 1031.99Z" fill="url(#paint11_linear_156_665)"/>
</g>
<g filter="url(#filter17_i_156_665)">
<path d="M836.399 1239.12C825.592 1249.62 812.782 1253.75 797.907 1249.92C789.59 1247.8 785.097 1241.55 782.669 1233.66C782.001 1231.47 781.576 1229.17 780.908 1226.56C780.24 1227.29 779.694 1227.83 779.269 1228.38C765.062 1248.71 745.149 1254.6 721.532 1251.08C711.393 1249.56 702.226 1245.61 695.365 1237.72C679.459 1219.46 683.77 1189.42 703.987 1175.88C715.886 1167.99 729.182 1164.11 743.024 1161.86C754.316 1160.1 765.67 1158.83 776.962 1157.37C777.873 1157.25 778.723 1157.07 779.512 1156.95C779.694 1156.64 779.876 1156.46 779.876 1156.28C779.512 1145.11 779.815 1133.82 778.54 1122.78C777.205 1111.19 771.194 1102.08 759.234 1098.81C746.667 1095.35 735.132 1097.35 725.843 1107.24C722.2 1111.07 720.318 1115.86 719.104 1120.96C717.222 1128.97 713.336 1131.88 705.201 1130.55C696.64 1129.15 695.79 1128.36 696.762 1119.74C697.915 1109.67 704.594 1103.48 712.911 1098.75C721.107 1094.07 730.032 1091.58 739.26 1090.07C752.374 1087.94 765.427 1087.94 778.358 1091.4C798.272 1096.74 809.443 1110.28 810.171 1130.91C810.778 1147.36 810.535 1163.81 810.657 1180.31C810.718 1190.81 810.596 1201.31 810.718 1211.81C810.718 1215.15 810.839 1218.49 811.325 1221.76C812.964 1233.9 819.764 1238.88 831.785 1236.57C834.213 1236.03 835.852 1236.21 836.399 1239.12ZM779.815 1164.78C772.348 1165.81 765.184 1166.54 758.202 1167.87C748.124 1169.81 738.41 1172.73 730.214 1179.46C715.643 1191.42 714.186 1214.84 727.3 1226.98C740.717 1239.42 768.523 1237.72 779.451 1216C779.937 1215.09 779.997 1213.87 779.997 1212.78C780.058 1197.97 780.058 1183.1 780.058 1168.3C780.058 1167.39 779.937 1166.48 779.815 1164.78Z" fill="url(#paint12_linear_156_665)"/>
</g>
<g filter="url(#filter18_i_156_665)">
<path d="M1248.75 1226.07C1244.08 1233.35 1239.04 1239.18 1232.36 1243.19C1212.08 1255.2 1191.14 1255.81 1170.8 1244.04C1157.38 1236.27 1153.07 1223.1 1153.74 1208.17C1154.47 1191.78 1163.15 1180.49 1177.17 1172.79C1188.95 1166.29 1201.76 1163.14 1214.94 1161.26C1224.95 1159.8 1234.97 1158.71 1244.99 1157.43C1245.9 1157.31 1246.75 1157.13 1247.96 1156.95C1247.72 1143.84 1249.12 1130.79 1245.53 1118.04C1241.59 1103.96 1230.78 1096.74 1215.24 1097.41C1201.28 1097.96 1191.14 1106.64 1188.28 1120.47C1187.49 1124.24 1187.01 1128.18 1182.58 1129.7C1177.29 1131.52 1172.19 1130.97 1167.4 1128.36C1166.67 1128 1166.18 1126.78 1166.06 1125.87C1164.67 1118.47 1166.73 1111.79 1171.95 1106.7C1176.02 1102.75 1180.76 1098.99 1185.85 1096.68C1206.62 1087.4 1228.29 1085.76 1250.03 1092.56C1268 1098.2 1277.95 1112.4 1278.26 1132.37C1278.62 1157.19 1278.38 1182.07 1278.5 1206.89C1278.56 1212.23 1278.68 1217.64 1279.47 1222.92C1281.11 1233.84 1288.34 1238.69 1299.2 1236.57C1299.87 1236.45 1300.66 1236.02 1301.27 1236.21C1302.24 1236.51 1303.39 1237 1303.94 1237.78C1304.24 1238.27 1303.88 1239.73 1303.33 1240.21C1292.65 1250.1 1280.14 1253.5 1266.05 1249.98C1256.83 1247.68 1252.21 1240.76 1249.97 1231.96C1249.72 1231.05 1249.6 1230.2 1249.42 1229.29C1249.24 1228.5 1249.12 1227.77 1248.75 1226.07ZM1247.78 1165.02C1243.11 1165.5 1238.73 1165.87 1234.36 1166.54C1224.59 1168.05 1214.81 1169.75 1205.83 1174.36C1194.42 1180.25 1187.37 1189.11 1186.28 1202.22C1185.19 1215.39 1191.26 1226.8 1202.43 1231.84C1215.48 1237.66 1236.43 1235.96 1246.93 1217.03C1247.6 1215.88 1247.84 1214.36 1247.84 1213.02C1247.9 1198.15 1247.9 1183.35 1247.9 1168.48C1247.96 1167.51 1247.84 1166.47 1247.78 1165.02Z" fill="url(#paint13_linear_156_665)"/>
</g>
<g filter="url(#filter19_i_156_665)">
<path d="M428.052 1092.19C428.841 1094.44 428.234 1095.41 425.988 1095.89C413.481 1098.75 410.689 1103.66 415.363 1115.68C424.592 1139.29 434.123 1162.77 443.473 1186.32C447.419 1196.27 451.305 1206.23 455.433 1216.6C455.979 1215.75 456.404 1215.27 456.647 1214.72C468.304 1184.14 480.021 1153.61 491.496 1122.96C493.014 1118.83 493.985 1114.4 494.349 1110.03C494.896 1103.05 491.496 1098.87 484.757 1096.93C483.603 1096.62 482.389 1096.38 481.236 1096.08C478.503 1095.41 478.503 1095.41 478.928 1092.19C479.778 1092.13 480.628 1092.01 481.539 1092.01C496.596 1092.01 511.652 1091.95 526.769 1092.01C528.044 1092.01 529.805 1091.4 529.987 1093.65C530.169 1095.71 528.469 1095.71 527.133 1095.95C519.18 1097.41 513.413 1101.96 510.134 1109.18C504.731 1121.14 499.388 1133.1 494.471 1145.29C476.257 1190.33 458.347 1235.48 439.891 1280.39C435.641 1290.77 429.995 1300.72 424.349 1310.43C421.981 1314.5 418.278 1318.08 414.574 1321.11C404.678 1329.3 393.204 1330.76 381.122 1327.18C372.683 1324.69 368.433 1318.44 368.98 1310.55C369.83 1298.72 381.851 1292.04 392.9 1297.32C394.721 1298.17 396.361 1299.38 398.121 1300.36C404.435 1303.81 411.417 1303.45 416.76 1298.6C419.977 1295.68 423.134 1292.16 425.017 1288.28C430.177 1277.78 434.67 1266.98 439.344 1256.23C439.709 1255.45 439.527 1254.23 439.162 1253.44C419.795 1208.35 400.428 1163.32 381.001 1118.29C379.786 1115.5 378.572 1112.7 377.115 1110.09C373.047 1102.75 367.098 1097.71 358.659 1096.14C357.262 1095.89 355.866 1095.47 356.412 1093.71C356.655 1092.98 357.869 1092.13 358.659 1092.13C381.608 1092.07 404.557 1092.07 427.506 1092.07C427.506 1092.01 427.688 1092.07 428.052 1092.19Z" fill="url(#paint14_linear_156_665)"/>
</g>
<g filter="url(#filter20_i_156_665)">
<path d="M654.082 1223.83C659.121 1226.98 659.303 1227.29 656.328 1232.08C650.075 1242.22 640.604 1247.92 629.19 1250.35C616.44 1253.08 603.63 1253.32 591.488 1247.56C580.196 1242.22 575.096 1232.44 573.274 1220.67C572.667 1216.79 572.485 1212.84 572.485 1208.9C572.424 1175.4 572.485 1141.84 572.485 1108.34C572.485 1102.81 571.575 1101.84 566.05 1101.66C561.314 1101.54 556.518 1101.54 551.783 1101.66C549.658 1101.72 548.808 1100.93 549.051 1098.81C549.111 1098.02 549.172 1097.17 549.051 1096.38C548.747 1094.13 549.9 1093.47 551.965 1093.16C556.457 1092.56 560.95 1091.77 565.382 1090.86C571.15 1089.7 572.546 1087.82 572.607 1081.87C572.667 1075.14 572.607 1068.34 572.728 1061.6C572.728 1060.63 573.396 1059.24 574.185 1058.81C583.049 1054.38 591.974 1050.13 600.838 1045.83C601.445 1045.52 602.112 1045.4 603.205 1044.98C603.205 1060.69 603.205 1076.05 603.205 1091.71C619.415 1091.71 635.261 1091.71 651.653 1091.71C651.653 1094.74 651.775 1097.53 651.532 1100.26C651.471 1100.81 649.71 1101.54 648.8 1101.54C635.14 1101.6 621.479 1101.6 607.88 1101.6C606.605 1101.6 605.269 1101.6 603.63 1101.6C603.57 1102.93 603.448 1104.09 603.448 1105.3C603.448 1137.59 603.387 1169.93 603.509 1202.22C603.509 1206.83 604.055 1211.51 605.087 1216C608.123 1228.92 618.323 1235.9 631.618 1234.69C639.511 1233.96 646.189 1230.93 652.017 1225.65C652.564 1225.1 653.353 1224.49 654.082 1223.83Z" fill="url(#paint15_linear_156_665)"/>
</g>
<path d="M1250.57 1026.22C1253.24 1022.7 1256.34 1020.34 1260.35 1019.43C1271.34 1017 1279.9 1025.31 1278.14 1036.72C1277.41 1041.27 1275.59 1045.4 1272.61 1048.98C1266.6 1056.2 1259.19 1061.79 1251.48 1066.94C1250.88 1067.37 1249.42 1067.43 1248.87 1067.01C1241.22 1061.42 1233.45 1055.9 1227.62 1048.25C1224.53 1044.25 1222.65 1039.7 1222.59 1034.6C1222.46 1027.74 1225.56 1022.46 1231.09 1020.21C1237.03 1017.73 1243.71 1019.12 1248.39 1023.86C1249 1024.52 1249.66 1025.25 1250.57 1026.22Z" fill="url(#paint16_linear_156_665)"/>
</g>
<defs>
<filter id="filter0_d_156_665" x="567" y="257.5" width="309" height="534.5" filterUnits="userSpaceOnUse" color-interpolation-filters="sRGB">
<feFlood flood-opacity="0" result="BackgroundImageFix"/>
<feColorMatrix in="SourceAlpha" type="matrix" values="0 0 0 0 0 0 0 0 0 0 0 0 0 0 0 0 0 0 127 0" result="hardAlpha"/>
<feOffset dx="-5" dy="10"/>
<feGaussianBlur stdDeviation="5"/>
<feColorMatrix type="matrix" values="0 0 0 0 0 0 0 0 0 0 0 0 0 0 0 0 0 0 0.7 0"/>
<feBlend mode="normal" in2="BackgroundImageFix" result="effect1_dropShadow_156_665"/>
<feBlend mode="normal" in="SourceGraphic" in2="effect1_dropShadow_156_665" result="shape"/>
</filter>
<filter id="filter1_df_156_665" x="220.43" y="768.65" width="486.265" height="260.348" filterUnits="userSpaceOnUse" color-interpolation-filters="sRGB">
<feFlood flood-opacity="0" result="BackgroundImageFix"/>
<feColorMatrix in="SourceAlpha" type="matrix" values="0 0 0 0 0 0 0 0 0 0 0 0 0 0 0 0 0 0 127 0" result="hardAlpha"/>
<feOffset dx="-5" dy="10"/>
<feGaussianBlur stdDeviation="5"/>
<feComposite in2="hardAlpha" operator="out"/>
<feColorMatrix type="matrix" values="0 0 0 0 0 0 0 0 0 0 0 0 0 0 0 0 0 0 0.7 0"/>
<feBlend mode="normal" in2="BackgroundImageFix" result="effect1_dropShadow_156_665"/>
<feBlend mode="normal" in="SourceGraphic" in2="effect1_dropShadow_156_665" result="shape"/>
<feGaussianBlur stdDeviation="7" result="effect2_foregroundBlur_156_665"/>
</filter>
<filter id="filter2_d_156_665" x="579.397" y="113.988" width="341.736" height="765.048" filterUnits="userSpaceOnUse" color-interpolation-filters="sRGB">
<feFlood flood-opacity="0" result="BackgroundImageFix"/>
<feColorMatrix in="SourceAlpha" type="matrix" values="0 0 0 0 0 0 0 0 0 0 0 0 0 0 0 0 0 0 127 0" result="hardAlpha"/>
<feOffset dy="10"/>
<feGaussianBlur stdDeviation="5"/>
<feComposite in2="hardAlpha" operator="out"/>
<feColorMatrix type="matrix" values="0 0 0 0 0 0 0 0 0 0 0 0 0 0 0 0 0 0 0.5 0"/>
<feBlend mode="normal" in2="BackgroundImageFix" result="effect1_dropShadow_156_665"/>
<feBlend mode="normal" in="SourceGraphic" in2="effect1_dropShadow_156_665" result="shape"/>
</filter>
<filter id="filter3_d_156_665" x="574.026" y="675.19" width="287.396" height="347.187" filterUnits="userSpaceOnUse" color-interpolation-filters="sRGB">
<feFlood flood-opacity="0" result="BackgroundImageFix"/>
<feColorMatrix in="SourceAlpha" type="matrix" values="0 0 0 0 0 0 0 0 0 0 0 0 0 0 0 0 0 0 127 0" result="hardAlpha"/>
<feOffset dx="-5" dy="10"/>
<feGaussianBlur stdDeviation="5"/>
<feComposite in2="hardAlpha" operator="out"/>
<feColorMatrix type="matrix" values="0 0 0 0 0 0 0 0 0 0 0 0 0 0 0 0 0 0 0.5 0"/>
<feBlend mode="normal" in2="BackgroundImageFix" result="effect1_dropShadow_156_665"/>
<feBlend mode="normal" in="SourceGraphic" in2="effect1_dropShadow_156_665" result="shape"/>
</filter>
<filter id="filter4_d_156_665" x="417.75" y="450.133" width="191.032" height="461.988" filterUnits="userSpaceOnUse" color-interpolation-filters="sRGB">
<feFlood flood-opacity="0" result="BackgroundImageFix"/>
<feColorMatrix in="SourceAlpha" type="matrix" values="0 0 0 0 0 0 0 0 0 0 0 0 0 0 0 0 0 0 127 0" result="hardAlpha"/>
<feOffset dx="-5" dy="10"/>
<feGaussianBlur stdDeviation="5"/>
<feComposite in2="hardAlpha" operator="out"/>
<feColorMatrix type="matrix" values="0 0 0 0 0 0 0 0 0 0 0 0 0 0 0 0 0 0 0.7 0"/>
<feBlend mode="normal" in2="BackgroundImageFix" result="effect1_dropShadow_156_665"/>
<feBlend mode="normal" in="SourceGraphic" in2="effect1_dropShadow_156_665" result="shape"/>
</filter>
<filter id="filter5_df_156_665" x="495.5" y="905.501" width="166.501" height="72.499" filterUnits="userSpaceOnUse" color-interpolation-filters="sRGB">
<feFlood flood-opacity="0" result="BackgroundImageFix"/>
<feColorMatrix in="SourceAlpha" type="matrix" values="0 0 0 0 0 0 0 0 0 0 0 0 0 0 0 0 0 0 127 0" result="hardAlpha"/>
<feOffset dy="4"/>
<feGaussianBlur stdDeviation="2"/>
<feComposite in2="hardAlpha" operator="out"/>
<feColorMatrix type="matrix" values="0 0 0 0 0 0 0 0 0 0 0 0 0 0 0 0 0 0 0.25 0"/>
<feBlend mode="normal" in2="BackgroundImageFix" result="effect1_dropShadow_156_665"/>
<feBlend mode="normal" in="SourceGraphic" in2="effect1_dropShadow_156_665" result="shape"/>
<feGaussianBlur stdDeviation="2" result="effect2_foregroundBlur_156_665"/>
</filter>
<filter id="filter6_df_156_665" x="269" y="582.5" width="58" height="164.5" filterUnits="userSpaceOnUse" color-interpolation-filters="sRGB">
<feFlood flood-opacity="0" result="BackgroundImageFix"/>
<feColorMatrix in="SourceAlpha" type="matrix" values="0 0 0 0 0 0 0 0 0 0 0 0 0 0 0 0 0 0 127 0" result="hardAlpha"/>
<feOffset dx="-5" dy="10"/>
<feGaussianBlur stdDeviation="5"/>
<feComposite in2="hardAlpha" operator="out"/>
<feColorMatrix type="matrix" values="0 0 0 0 0 0 0 0 0 0 0 0 0 0 0 0 0 0 0.25 0"/>
<feBlend mode="normal" in2="BackgroundImageFix" result="effect1_dropShadow_156_665"/>
<feBlend mode="normal" in="SourceGraphic" in2="effect1_dropShadow_156_665" result="shape"/>
<feGaussianBlur stdDeviation="2" result="effect2_foregroundBlur_156_665"/>
</filter>
<filter id="filter7_df_156_665" x="270" y="542.001" width="148" height="89.5" filterUnits="userSpaceOnUse" color-interpolation-filters="sRGB">
<feFlood flood-opacity="0" result="BackgroundImageFix"/>
<feColorMatrix in="SourceAlpha" type="matrix" values="0 0 0 0 0 0 0 0 0 0 0 0 0 0 0 0 0 0 127 0" result="hardAlpha"/>
<feOffset dx="2"/>
<feGaussianBlur stdDeviation="2.5"/>
<feColorMatrix type="matrix" values="0 0 0 0 0 0 0 0 0 0 0 0 0 0 0 0 0 0 0.5 0"/>
<feBlend mode="normal" in2="BackgroundImageFix" result="effect1_dropShadow_156_665"/>
<feBlend mode="normal" in="SourceGraphic" in2="effect1_dropShadow_156_665" result="shape"/>
<feGaussianBlur stdDeviation="2" result="effect2_foregroundBlur_156_665"/>
</filter>
<filter id="filter8_d_156_665" x="258.84" y="546.397" width="354.458" height="396.521" filterUnits="userSpaceOnUse" color-interpolation-filters="sRGB">
<feFlood flood-opacity="0" result="BackgroundImageFix"/>
<feColorMatrix in="SourceAlpha" type="matrix" values="0 0 0 0 0 0 0 0 0 0 0 0 0 0 0 0 0 0 127 0" result="hardAlpha"/>
<feOffset dx="-5" dy="10"/>
<feGaussianBlur stdDeviation="5"/>
<feComposite in2="hardAlpha" operator="out"/>
<feColorMatrix type="matrix" values="0 0 0 0 0 0 0 0 0 0 0 0 0 0 0 0 0 0 0.5 0"/>
<feBlend mode="normal" in2="BackgroundImageFix" result="effect1_dropShadow_156_665"/>
<feBlend mode="normal" in="SourceGraphic" in2="effect1_dropShadow_156_665" result="shape"/>
</filter>
<filter id="filter9_df_156_665" x="1035" y="546.381" width="153.203" height="89.0439" filterUnits="userSpaceOnUse" color-interpolation-filters="sRGB">
<feFlood flood-opacity="0" result="BackgroundImageFix"/>
<feColorMatrix in="SourceAlpha" type="matrix" values="0 0 0 0 0 0 0 0 0 0 0 0 0 0 0 0 0 0 127 0" result="hardAlpha"/>
<feOffset/>
<feComposite in2="hardAlpha" operator="out"/>
<feColorMatrix type="matrix" values="0 0 0 0 0 0 0 0 0 0 0 0 0 0 0 0 0 0 0.5 0"/>
<feBlend mode="normal" in2="BackgroundImageFix" result="effect1_dropShadow_156_665"/>
<feBlend mode="normal" in="SourceGraphic" in2="effect1_dropShadow_156_665" result="shape"/>
<feGaussianBlur stdDeviation="2" result="effect2_foregroundBlur_156_665"/>
</filter>
<filter id="filter10_df_156_665" x="742" y="756" width="497.189" height="270.437" filterUnits="userSpaceOnUse" color-interpolation-filters="sRGB">
<feFlood flood-opacity="0" result="BackgroundImageFix"/>
<feColorMatrix in="SourceAlpha" type="matrix" values="0 0 0 0 0 0 0 0 0 0 0 0 0 0 0 0 0 0 127 0" result="hardAlpha"/>
<feOffset dx="-5" dy="10"/>
<feGaussianBlur stdDeviation="5"/>
<feComposite in2="hardAlpha" operator="out"/>
<feColorMatrix type="matrix" values="0 0 0 0 0 0 0 0 0 0 0 0 0 0 0 0 0 0 0.7 0"/>
<feBlend mode="normal" in2="BackgroundImageFix" result="effect1_dropShadow_156_665"/>
<feBlend mode="normal" in="SourceGraphic" in2="effect1_dropShadow_156_665" result="shape"/>
<feGaussianBlur stdDeviation="7" result="effect2_foregroundBlur_156_665"/>
</filter>
<filter id="filter11_d_156_665" x="814.776" y="547.805" width="373.01" height="399.195" filterUnits="userSpaceOnUse" color-interpolation-filters="sRGB">
<feFlood flood-opacity="0" result="BackgroundImageFix"/>
<feColorMatrix in="SourceAlpha" type="matrix" values="0 0 0 0 0 0 0 0 0 0 0 0 0 0 0 0 0 0 127 0" result="hardAlpha"/>
<feOffset dx="-5" dy="10"/>
<feGaussianBlur stdDeviation="5"/>
<feComposite in2="hardAlpha" operator="out"/>
<feColorMatrix type="matrix" values="0 0 0 0 0 0 0 0 0 0 0 0 0 0 0 0 0 0 0.5 0"/>
<feBlend mode="normal" in2="BackgroundImageFix" result="effect1_dropShadow_156_665"/>
<feBlend mode="normal" in="SourceGraphic" in2="effect1_dropShadow_156_665" result="shape"/>
</filter>
<filter id="filter12_d_156_665" x="834.031" y="453.301" width="191.002" height="458.029" filterUnits="userSpaceOnUse" color-interpolation-filters="sRGB">
<feFlood flood-opacity="0" result="BackgroundImageFix"/>
<feColorMatrix in="SourceAlpha" type="matrix" values="0 0 0 0 0 0 0 0 0 0 0 0 0 0 0 0 0 0 127 0" result="hardAlpha"/>
<feOffset dx="-5" dy="10"/>
<feGaussianBlur stdDeviation="5"/>
<feComposite in2="hardAlpha" operator="out"/>
<feColorMatrix type="matrix" values="0 0 0 0 0 0 0 0 0 0 0 0 0 0 0 0 0 0 0.5 0"/>
<feBlend mode="normal" in2="BackgroundImageFix" result="effect1_dropShadow_156_665"/>
<feBlend mode="normal" in="SourceGraphic" in2="effect1_dropShadow_156_665" result="shape"/>
</filter>
<filter id="filter13_df_156_665" x="991" y="533" width="35.0576" height="192" filterUnits="userSpaceOnUse" color-interpolation-filters="sRGB">
<feFlood flood-opacity="0" result="BackgroundImageFix"/>
<feColorMatrix in="SourceAlpha" type="matrix" values="0 0 0 0 0 0 0 0 0 0 0 0 0 0 0 0 0 0 127 0" result="hardAlpha"/>
<feOffset dx="-5" dy="10"/>
<feGaussianBlur stdDeviation="5"/>
<feComposite in2="hardAlpha" operator="out"/>
<feColorMatrix type="matrix" values="0 0 0 0 0 0 0 0 0 0 0 0 0 0 0 0 0 0 0.7 0"/>
<feBlend mode="normal" in2="BackgroundImageFix" result="effect1_dropShadow_156_665"/>
<feBlend mode="normal" in="SourceGraphic" in2="effect1_dropShadow_156_665" result="shape"/>
<feGaussianBlur stdDeviation="2" result="effect2_foregroundBlur_156_665"/>
</filter>
<filter id="filter14_d_156_665" x="682.341" y="791.812" width="82.9326" height="100.188" filterUnits="userSpaceOnUse" color-interpolation-filters="sRGB">
<feFlood flood-opacity="0" result="BackgroundImageFix"/>
<feColorMatrix in="SourceAlpha" type="matrix" values="0 0 0 0 0 0 0 0 0 0 0 0 0 0 0 0 0 0 127 0" result="hardAlpha"/>
<feOffset/>
<feGaussianBlur stdDeviation="5"/>
<feComposite in2="hardAlpha" operator="out"/>
<feColorMatrix type="matrix" values="0 0 0 0 0 0 0 0 0 0 0 0 0 0 0 0 0 0 0.5 0"/>
<feBlend mode="normal" in2="BackgroundImageFix" result="effect1_dropShadow_156_665"/>
<feBlend mode="normal" in="SourceGraphic" in2="effect1_dropShadow_156_665" result="shape"/>
</filter>
<filter id="filter15_i_156_665" x="860.963" y="1088.5" width="266.791" height="171.106" filterUnits="userSpaceOnUse" color-interpolation-filters="sRGB">
<feFlood flood-opacity="0" result="BackgroundImageFix"/>
<feBlend mode="normal" in="SourceGraphic" in2="BackgroundImageFix" result="shape"/>
<feColorMatrix in="SourceAlpha" type="matrix" values="0 0 0 0 0 0 0 0 0 0 0 0 0 0 0 0 0 0 127 0" result="hardAlpha"/>
<feOffset dy="10"/>
<feGaussianBlur stdDeviation="5"/>
<feComposite in2="hardAlpha" operator="arithmetic" k2="-1" k3="1"/>
<feColorMatrix type="matrix" values="0 0 0 0 0 0 0 0 0 0 0 0 0 0 0 0 0 0 0.5 0"/>
<feBlend mode="normal" in2="shape" result="effect1_innerShadow_156_665"/>
</filter>
<filter id="filter16_i_156_665" x="153.939" y="1022.31" width="194.702" height="237.004" filterUnits="userSpaceOnUse" color-interpolation-filters="sRGB">
<feFlood flood-opacity="0" result="BackgroundImageFix"/>
<feBlend mode="normal" in="SourceGraphic" in2="BackgroundImageFix" result="shape"/>
<feColorMatrix in="SourceAlpha" type="matrix" values="0 0 0 0 0 0 0 0 0 0 0 0 0 0 0 0 0 0 127 0" result="hardAlpha"/>
<feOffset dy="10"/>
<feGaussianBlur stdDeviation="5"/>
<feComposite in2="hardAlpha" operator="arithmetic" k2="-1" k3="1"/>
<feColorMatrix type="matrix" values="0 0 0 0 0 0 0 0 0 0 0 0 0 0 0 0 0 0 0.5 0"/>
<feBlend mode="normal" in2="shape" result="effect1_innerShadow_156_665"/>
</filter>
<filter id="filter17_i_156_665" x="685.699" y="1088.61" width="150.7" height="173.422" filterUnits="userSpaceOnUse" color-interpolation-filters="sRGB">
<feFlood flood-opacity="0" result="BackgroundImageFix"/>
<feBlend mode="normal" in="SourceGraphic" in2="BackgroundImageFix" result="shape"/>
<feColorMatrix in="SourceAlpha" type="matrix" values="0 0 0 0 0 0 0 0 0 0 0 0 0 0 0 0 0 0 127 0" result="hardAlpha"/>
<feOffset dy="10"/>
<feGaussianBlur stdDeviation="5"/>
<feComposite in2="hardAlpha" operator="arithmetic" k2="-1" k3="1"/>
<feColorMatrix type="matrix" values="0 0 0 0 0 0 0 0 0 0 0 0 0 0 0 0 0 0 0.5 0"/>
<feBlend mode="normal" in2="shape" result="effect1_innerShadow_156_665"/>
</filter>
<filter id="filter18_i_156_665" x="1153.67" y="1088.39" width="150.376" height="174.146" filterUnits="userSpaceOnUse" color-interpolation-filters="sRGB">
<feFlood flood-opacity="0" result="BackgroundImageFix"/>
<feBlend mode="normal" in="SourceGraphic" in2="BackgroundImageFix" result="shape"/>
<feColorMatrix in="SourceAlpha" type="matrix" values="0 0 0 0 0 0 0 0 0 0 0 0 0 0 0 0 0 0 127 0" result="hardAlpha"/>
<feOffset dy="10"/>
<feGaussianBlur stdDeviation="5"/>
<feComposite in2="hardAlpha" operator="arithmetic" k2="-1" k3="1"/>
<feColorMatrix type="matrix" values="0 0 0 0 0 0 0 0 0 0 0 0 0 0 0 0 0 0 0.5 0"/>
<feBlend mode="normal" in2="shape" result="effect1_innerShadow_156_665"/>
</filter>
<filter id="filter19_i_156_665" x="356.291" y="1091.93" width="173.709" height="247.084" filterUnits="userSpaceOnUse" color-interpolation-filters="sRGB">
<feFlood flood-opacity="0" result="BackgroundImageFix"/>
<feBlend mode="normal" in="SourceGraphic" in2="BackgroundImageFix" result="shape"/>
<feColorMatrix in="SourceAlpha" type="matrix" values="0 0 0 0 0 0 0 0 0 0 0 0 0 0 0 0 0 0 127 0" result="hardAlpha"/>
<feOffset dy="10"/>
<feGaussianBlur stdDeviation="5"/>
<feComposite in2="hardAlpha" operator="arithmetic" k2="-1" k3="1"/>
<feColorMatrix type="matrix" values="0 0 0 0 0 0 0 0 0 0 0 0 0 0 0 0 0 0 0.5 0"/>
<feBlend mode="normal" in2="shape" result="effect1_innerShadow_156_665"/>
</filter>
<filter id="filter20_i_156_665" x="549.002" y="1044.98" width="109.277" height="217.235" filterUnits="userSpaceOnUse" color-interpolation-filters="sRGB">
<feFlood flood-opacity="0" result="BackgroundImageFix"/>
<feBlend mode="normal" in="SourceGraphic" in2="BackgroundImageFix" result="shape"/>
<feColorMatrix in="SourceAlpha" type="matrix" values="0 0 0 0 0 0 0 0 0 0 0 0 0 0 0 0 0 0 127 0" result="hardAlpha"/>
<feOffset dy="10"/>
<feGaussianBlur stdDeviation="5"/>
<feComposite in2="hardAlpha" operator="arithmetic" k2="-1" k3="1"/>
<feColorMatrix type="matrix" values="0 0 0 0 0 0 0 0 0 0 0 0 0 0 0 0 0 0 0.5 0"/>
<feBlend mode="normal" in2="shape" result="effect1_innerShadow_156_665"/>
</filter>
<linearGradient id="paint0_linear_156_665" x1="750.266" y1="113.988" x2="750.266" y2="859.036" gradientUnits="userSpaceOnUse">
<stop stop-color="#3AA1A3"/>
<stop offset="1" stop-color="#05364C"/>
</linearGradient>
<linearGradient id="paint1_linear_156_665" x1="722.724" y1="675.19" x2="722.724" y2="1002.38" gradientUnits="userSpaceOnUse">
<stop stop-color="#3AA1A3"/>
<stop offset="1" stop-color="#05364C"/>
</linearGradient>
<linearGradient id="paint2_linear_156_665" x1="518.266" y1="450.133" x2="518.266" y2="892.121" gradientUnits="userSpaceOnUse">
<stop stop-color="#3AA1A3"/>
<stop offset="1" stop-color="#05364C"/>
</linearGradient>
<linearGradient id="paint3_linear_156_665" x1="464.105" y1="777.901" x2="464.105" y2="1008.56" gradientUnits="userSpaceOnUse">
<stop stop-color="#3AA1A3"/>
<stop offset="1" stop-color="#05364C"/>
</linearGradient>
<linearGradient id="paint4_linear_156_665" x1="441.069" y1="546.397" x2="441.069" y2="922.919" gradientUnits="userSpaceOnUse">
<stop stop-color="#3AA1A3"/>
<stop offset="1" stop-color="#05364C"/>
</linearGradient>
<linearGradient id="paint5_linear_156_665" x1="987.905" y1="774.599" x2="987.905" y2="1011.04" gradientUnits="userSpaceOnUse">
<stop stop-color="#3AA1A3"/>
<stop offset="1" stop-color="#05364C"/>
</linearGradient>
<linearGradient id="paint6_linear_156_665" x1="1006.28" y1="547.805" x2="1006.28" y2="927" gradientUnits="userSpaceOnUse">
<stop stop-color="#3AA1A3"/>
<stop offset="1" stop-color="#05364C"/>
</linearGradient>
<linearGradient id="paint7_linear_156_665" x1="934.532" y1="453.301" x2="934.532" y2="891.33" gradientUnits="userSpaceOnUse">
<stop stop-color="#3AA1A3"/>
<stop offset="1" stop-color="#05364C"/>
</linearGradient>
<linearGradient id="paint8_linear_156_665" x1="732.588" y1="803.212" x2="714.751" y2="871.413" gradientUnits="userSpaceOnUse">
<stop stop-color="#3AA1A3"/>
<stop offset="1" stop-color="#05364C"/>
</linearGradient>
<linearGradient id="paint9_linear_156_665" x1="723.808" y1="827.748" x2="723.808" y2="882" gradientUnits="userSpaceOnUse">
<stop stop-color="#FF0000"/>
<stop offset="1" stop-color="#990000"/>
</linearGradient>
<linearGradient id="paint10_linear_156_665" x1="994.358" y1="1088.5" x2="994.358" y2="1249.61" gradientUnits="userSpaceOnUse">
<stop stop-color="#3AA1A3"/>
<stop offset="1" stop-color="#05364C"/>
</linearGradient>
<linearGradient id="paint11_linear_156_665" x1="251.29" y1="1022.31" x2="251.29" y2="1249.32" gradientUnits="userSpaceOnUse">
<stop stop-color="#3AA1A3"/>
<stop offset="1" stop-color="#05364C"/>
</linearGradient>
<linearGradient id="paint12_linear_156_665" x1="761.049" y1="1088.61" x2="761.049" y2="1252.03" gradientUnits="userSpaceOnUse">
<stop stop-color="#3AA1A3"/>
<stop offset="1" stop-color="#05364C"/>
</linearGradient>
<linearGradient id="paint13_linear_156_665" x1="1228.86" y1="1088.39" x2="1228.86" y2="1252.54" gradientUnits="userSpaceOnUse">
<stop stop-color="#3AA1A3"/>
<stop offset="1" stop-color="#05364C"/>
</linearGradient>
<linearGradient id="paint14_linear_156_665" x1="443.146" y1="1091.93" x2="443.146" y2="1329.02" gradientUnits="userSpaceOnUse">
<stop stop-color="#3AA1A3"/>
<stop offset="1" stop-color="#05364C"/>
</linearGradient>
<linearGradient id="paint15_linear_156_665" x1="603.641" y1="1044.98" x2="603.641" y2="1252.21" gradientUnits="userSpaceOnUse">
<stop stop-color="#3AA1A3"/>
<stop offset="1" stop-color="#05364C"/>
</linearGradient>
<linearGradient id="paint16_linear_156_665" x1="1250.47" y1="1019" x2="1250.47" y2="1067.3" gradientUnits="userSpaceOnUse">
<stop stop-color="#FF0000"/>
<stop offset="1" stop-color="#990000"/>
</linearGradient>
<clipPath id="clip0_156_665">
<rect width="1150" height="310" fill="white" transform="translate(154 1019)"/>
</clipPath>
</defs>
</svg>
