<svg width="785" height="226" viewBox="0 0 785 226" fill="none" xmlns="http://www.w3.org/2000/svg">
<g clip-path="url(#clip0_1412_1908)">
<path d="M458.3 89.2018C461.8 85.8018 464.6 82.8018 467.8 80.2018C476.7 72.9018 486.9 69.6018 498.6 70.8018C506.1 71.6018 512.9 74.0018 518.6 78.9018C522.5 82.2018 525.3 86.3018 527.1 91.0018C527.4 91.7018 527.6 92.3018 528.1 93.5018C529.5 91.5018 530.4 89.7018 531.7 88.3018C542.2 76.7018 554.9 69.8018 571 70.5018C581.3 70.9018 590.2 74.8018 596.5 83.2018C600.3 88.3018 602.7 94.3018 603.6 100.602C604.4 106.902 605.1 113.302 605.1 119.702C605.3 137.202 605.2 154.602 605.2 172.102C605.2 175.102 604.8 178.002 602.5 180.102C600 182.502 597 183.402 593.6 182.102C590 180.802 588.2 178.002 587.8 174.402C587.7 173.302 587.7 172.202 587.7 171.202C587.7 152.102 587.7 133.102 587.7 114.002C587.7 108.402 586.5 103.102 584 98.1018C580.6 91.4018 575.1 87.8018 567.6 86.9018C561.4 86.2018 555.1 86.7018 549.4 89.2018C539.3 93.7018 531.4 102.202 531.3 115.002C531.1 133.902 531.3 152.802 531.2 171.702C531.2 175.302 530.7 178.802 527.2 181.102C522.7 184.102 516.2 182.102 514.5 176.902C514 175.302 513.8 173.502 513.8 171.802C513.7 152.202 513.9 132.702 513.7 113.202C513.6 108.902 512.8 104.402 511.3 100.302C508.4 92.4018 502.5 87.9018 493.9 86.9018C488 86.2018 482.1 86.7018 476.8 89.1018C467.1 93.6018 459.9 100.702 458.9 112.102C458.3 118.802 458.4 125.502 458.4 132.302C458.3 145.902 458.4 159.602 458.4 173.202C458.4 177.802 455.7 181.402 451.8 182.302C446.9 183.402 442.1 180.002 441.5 175.002C441.4 174.302 441.4 173.702 441.4 173.002C441.4 142.502 441.4 111.902 441.4 81.4018C441.4 75.7018 444.6 72.3018 450 72.3018C454.9 72.3018 458.2 75.3018 458.4 80.2018C458.4 83.1018 458.3 85.9018 458.3 89.2018Z" fill="#37BEB0"/>
<path d="M183 168.401C181.5 170.001 180.2 171.801 178.5 173.301C171.6 179.501 163.6 183.101 154.4 184.201C147.2 185.101 140 184.801 133.3 182.201C122.4 178.001 115.2 170.101 112.5 158.801C111 152.701 110.2 146.201 110.1 139.901C109.8 120.501 109.9 101.101 110.1 81.701C110.1 79.201 110.7 76.401 111.9 74.201C113.8 70.801 117.9 69.801 121.8 70.901C125.4 72.001 127.5 74.801 127.5 79.001C127.5 98.601 127.4 118.301 127.6 137.901C127.7 144.001 128.1 150.101 130.7 155.901C134 163.401 140.1 166.801 147.7 168.101C155.8 169.501 163.6 168.101 170.5 163.801C178.9 158.601 183.8 151.001 183.9 141.001C184.1 121.401 184 101.701 184 82.101C184 80.401 184.2 78.601 184.6 76.901C185.7 72.501 189.5 69.901 193.7 70.401C198.2 71.001 201.5 74.501 201.5 79.001C201.5 100.501 201.5 122.101 201.5 143.601C201.5 154.701 201.8 165.701 201.4 176.801C201 190.201 196.5 202.101 186.7 211.501C177.5 220.301 166.1 224.101 153.7 225.001C144.9 225.601 136.2 224.801 127.8 222.001C124.3 220.801 120.9 219.101 117.7 217.201C114.9 215.501 113.1 212.601 113.7 209.201C114.3 205.801 116.2 203.201 119.7 202.201C120.8 201.901 122.2 201.901 123.3 202.301C128.6 204.101 133.6 206.601 139 208.001C150.4 210.901 161.5 209.701 171.3 202.901C178.6 197.801 182.6 190.301 183.5 181.401C184 177.301 184 173.101 184.2 168.901C183.8 168.801 183.4 168.601 183 168.401Z" fill="#37BEB0"/>
<path d="M718.7 86.3017C718.7 84.1017 718.7 81.9017 718.7 79.7017C718.7 73.4017 725.2 69.6017 730.7 71.9017C733.2 72.9017 734.8 74.7017 735.6 77.2017C736 78.5017 736.2 79.8017 736.2 81.1017C736.2 111.502 736.2 142.002 736.2 172.402C736.2 175.602 735.5 178.602 732.7 180.802C730 182.902 727.1 183.302 724 181.802C720.8 180.302 718.9 177.802 718.8 174.202C718.7 171.702 718.8 169.302 718.8 166.202C717.8 167.002 717.3 167.302 717 167.702C709.1 177.402 698.8 183.002 686.6 184.502C676.2 185.802 666.4 183.502 657.2 178.102C648.3 172.902 642 165.402 637.4 156.502C633.5 149.002 631.1 140.902 630.9 132.402C630.8 127.402 630.8 122.302 631.3 117.302C632.4 106.202 636.7 96.3017 643.6 87.5017C649 80.7017 655.9 76.0017 663.8 72.6017C672.6 68.8017 681.7 68.4017 690.7 70.2017C701.1 72.3017 710.3 77.2017 717.1 85.6017C717.3 85.9017 717.7 86.1017 718 86.4017C718.2 86.4017 718.5 86.3017 718.7 86.3017ZM684.1 85.2017C681.6 85.5017 679.3 85.7017 676.9 85.9017C676.4 86.0017 675.9 86.1017 675.4 86.2017C662.4 89.9017 653.9 98.4017 649.8 111.202C646.4 121.702 646.7 132.302 649.9 142.802C652.5 151.402 657.5 158.602 665.2 163.402C672.8 168.102 681 169.602 690.1 167.902C701.1 165.902 708.5 159.402 713.9 150.202C718.6 142.102 719.9 133.102 719.4 123.802C718.9 115.802 717 108.502 712.8 101.602C706.1 90.9017 696.1 86.2017 684.1 85.2017Z" fill="#37BEB0"/>
<path d="M392.6 87.501C392.6 84.601 392.6 82.501 392.6 80.401C392.6 74.801 396.2 70.701 401.4 71.101C406 71.401 409.9 74.301 409.9 80.301C409.9 111.201 409.9 142.001 409.9 172.901C409.9 179.701 404.6 184.001 398.6 182.301C395.1 181.301 392.6 177.901 392.4 173.801C392.3 171.401 392.4 169.001 392.4 166.101C391.6 166.801 391.2 167.101 390.8 167.501C385.1 174.801 377.8 179.901 369 182.601C355.1 186.801 341.9 185.001 329.5 177.301C321.8 172.501 316 166.001 311.7 158.101C307.4 150.001 304.4 141.301 304.4 131.901C304.4 125.101 304.5 118.201 305.9 111.601C308.7 97.601 315.9 86.001 327.8 77.701C337.6 70.901 348.6 68.301 360.5 69.601C371.2 70.801 380.3 75.501 388.2 82.601C389.6 84.001 390.8 85.501 392.6 87.501ZM393.4 127.601C393.4 121.901 392.6 116.301 390.7 110.901C385.8 96.701 376.5 87.601 361.3 85.701C349.1 84.201 338.8 88.301 330.9 97.801C323.4 106.901 320.7 117.501 321.3 129.201C321.7 136.201 323 143.001 326.2 149.101C331.4 159.001 339.1 165.901 350.7 168.001C360.3 169.801 369 168.101 376.7 162.501C388.6 153.901 392.9 141.601 393.4 127.601Z" fill="#37BEB0"/>
<path d="M25.0003 166.1C26.6003 166.2 27.6003 166.3 28.5003 166.3C44.8003 166.3 61.1003 166.3 77.5003 166.3C82.9003 166.3 86.2003 169.8 86.0003 175.2C85.9003 178.6 83.2003 181.9 79.7003 182.7C78.2003 183.1 76.6003 183.3 75.0003 183.3C53.5003 183.3 32.0003 183.3 10.5003 183.3C7.40033 183.3 4.60033 182.7 2.50033 180C-0.599669 176 -1.09967 173.3 1.80033 169.1C6.50033 162.2 11.6003 155.4 16.5003 148.7C28.3003 132.7 40.1003 116.7 51.9003 100.7C54.3003 97.4 56.8003 94.2 59.2003 90.9C59.7003 90.2 60.1003 89.4 60.9003 88.3C59.3003 88.2 58.3003 88.1 57.3003 88.1C43.0003 88.1 28.7003 88.1 14.3003 88.1C9.50033 88.1 6.10033 86.1 4.80033 82.6C3.00033 77.9 5.40033 73.1 10.3003 71.9C11.6003 71.6 12.9003 71.6 14.3003 71.6C35.0003 71.6 55.8003 71.6 76.5003 71.5C80.5003 71.5 83.6003 72.6 85.5003 76.1C87.4003 79.6 86.5003 83 84.4003 86C80.5003 91.7 76.2003 97.1 72.1003 102.7C67.5003 108.9 62.9003 115.1 58.3003 121.3C49.5003 133 40.7003 144.8 32.0003 156.6C29.8003 159.5 27.6003 162.6 25.0003 166.1Z" fill="#0B6172"/>
<path d="M259.4 124.302C259.4 134.702 259.3 145.102 259.4 155.502C259.4 158.602 259.6 161.902 262.1 164.302C265.2 167.302 268.9 167.802 273 166.702C275.3 166.102 277.6 165.002 279.9 166.902C284 170.302 284.2 175.402 279.9 178.502C277.4 180.302 274.4 181.802 271.4 182.202C264.2 183.102 257 182.502 250.8 178.202C246.3 175.002 243.8 170.302 243.1 165.002C242.3 159.602 242.1 154.102 242 148.602C241.9 130.002 241.9 111.302 241.9 92.7016C241.9 88.9016 241.8 88.7016 238 88.7016C235 88.7016 232 88.8016 229 88.6016C222.1 88.2016 218.7 81.7016 222.3 75.9016C223.6 73.7016 225.7 72.7016 228.1 72.7016C231.7 72.6016 235.3 72.7016 238.8 72.7016C241.8 72.7016 242 72.2016 242 69.4016C242 63.3016 241.9 57.3016 242.4 51.2016C242.8 46.8016 245.5 44.5016 249.7 43.8016C253.2 43.2016 256.8 45.0016 258.6 48.4016C259.2 49.4016 259.3 50.8016 259.3 52.0016C259.4 57.8016 259.4 63.6016 259.3 69.5016C259.3 71.9016 260.2 72.7016 262.5 72.7016C267.7 72.6016 273 72.7016 278.2 72.7016C283.1 72.7016 286.6 76.0016 286.7 80.6016C286.8 85.1016 283.6 88.5016 278.6 88.6016C273.4 88.8016 268.3 88.7016 263.1 88.7016C259.4 88.7016 259.2 88.9016 259.2 92.5016C259.4 103.202 259.4 113.802 259.4 124.302Z" fill="#37BEB0"/>
<path d="M752.6 10.7007C754.5 8.40072 756 6.10072 757.9 4.30072C763.7 -0.899276 770.4 -1.39928 777 2.70072C782.7 6.20072 785.7 13.8007 784.2 20.5007C782.9 26.3007 779.7 31.2007 775.9 35.4007C769.8 42.1007 763.2 48.3007 756.7 54.6007C755.8 55.5007 754.7 56.2007 753.6 56.7007C753.1 57.0007 752 57.0007 751.6 56.7007C740.1 47.6007 729 38.1007 722.6 24.6007C717.8 14.4007 722.8 3.50072 733 0.600723C739.2 -1.09928 746.7 1.90072 750.2 7.40072C751.1 8.40072 751.8 9.50072 752.6 10.7007Z" fill="url(#paint0_linear_1412_1908)"/>
</g>
<defs>
<linearGradient id="paint0_linear_1412_1908" x1="752.673" y1="-0.03125" x2="752.673" y2="56.9257" gradientUnits="userSpaceOnUse">
<stop stop-color="#FF0000"/>
<stop offset="1" stop-color="#990000"/>
</linearGradient>
<clipPath id="clip0_1412_1908">
<rect width="784.6" height="225.3" fill="white"/>
</clipPath>
</defs>
</svg>
