<svg width="1150" height="310" viewBox="0 0 1150 310" fill="none" xmlns="http://www.w3.org/2000/svg">
<g clip-path="url(#clip0_497_4997)">
<g filter="url(#filter0_i_497_4997)">
<path d="M755.921 97.2131C757.317 95.6979 758.774 94.1828 760.171 92.607C772.192 79.213 786.945 70.91 805.158 69.6373C815.176 68.91 824.95 70.4251 833.996 75.0918C843.346 79.9403 849.356 87.6373 852.392 97.6979C852.817 99.1525 853.181 100.546 853.788 102.607C855.245 100.546 856.399 98.9707 857.613 97.3949C870.241 80.4858 886.876 70.7282 908.125 69.516C918.75 68.91 928.949 70.8494 937.995 76.7888C950.745 85.1525 955.48 97.8798 955.723 112.365C956.087 130.486 955.844 148.668 955.966 166.85C956.027 180.789 956.148 194.668 956.269 208.607C956.269 210.607 956.573 212.668 957.059 214.607C958.394 219.941 961.673 223.456 967.076 224.91C968.655 225.335 970.294 225.456 971.751 226.123C972.601 226.486 973.087 227.638 973.754 228.426C972.965 228.971 972.176 229.517 971.326 230.001C971.022 230.183 970.537 230.001 970.112 230.001C950.259 230.001 930.467 230.001 910.614 230.001C909.339 230.001 907.639 230.729 907.336 228.426C907.032 226.183 908.671 226.123 910.129 225.82C920.328 223.638 924.032 219.759 924.639 209.395C925.185 200.365 925.064 191.274 925.064 182.183C925.124 162.789 925.185 143.456 924.942 124.062C924.882 118.668 924.274 113.153 922.939 107.94C919.66 95.2737 910.068 88.001 896.954 87.3343C878.801 86.4252 863.806 97.5161 856.095 112.668C855.61 113.577 855.549 114.789 855.549 115.88C855.549 144.547 855.549 173.153 855.61 201.819C855.61 205.032 855.792 208.304 856.156 211.456C856.945 219.638 860.831 223.698 868.845 225.517C870.484 225.88 873.641 224.91 873.216 228.244C872.791 231.456 869.998 229.88 868.359 229.88C848.931 230.001 829.504 229.941 810.076 230.001C809.469 230.001 808.801 230.183 808.254 229.941C807.647 229.698 806.615 229.092 806.676 228.668C806.737 227.82 807.283 226.971 807.708 226.183C807.829 226.001 808.254 226.001 808.558 226.001C821.429 223.638 823.797 217.213 823.979 206.426C824.282 184.365 824.282 162.244 824.282 140.183C824.282 132.001 824.222 123.819 823.675 115.698C823.432 111.759 822.34 107.698 820.943 104.001C816.754 92.7888 807.587 88.0616 796.355 87.4555C778.931 86.4858 765.999 94.304 757.378 109.213C756.225 111.213 755.617 113.759 755.617 116.062C755.496 145.334 755.557 174.547 755.617 203.819C755.617 206.244 755.8 208.668 756.042 211.092C756.832 219.395 760.535 223.517 768.731 225.577C770.37 226.001 773.467 225.153 773.042 228.426C772.617 231.395 769.945 229.941 768.306 229.941C748.878 230.062 729.451 230.062 710.023 230.001C708.991 230.001 707.352 229.274 707.109 228.547C706.441 226.486 708.202 226.244 709.78 225.941C719.798 223.759 723.44 219.88 724.169 209.698C724.715 201.759 724.654 193.759 724.654 185.819C724.715 160.304 724.654 134.789 724.654 109.274C724.654 105.94 724.472 102.607 723.987 99.3343C722.955 92.7888 719.13 88.4252 712.876 86.1828C711.541 85.6979 710.084 85.5161 708.869 84.8494C708.08 84.4252 707.109 83.3949 707.17 82.6676C707.17 81.9403 708.262 80.8494 709.052 80.6676C716.519 78.8494 724.047 77.2736 731.515 75.5767C738.436 74.0009 745.296 72.3645 752.157 70.7282C755.192 70.0009 755.617 70.3039 755.617 73.5767C755.617 81.3343 755.617 89.0919 755.617 96.8495C755.496 96.9707 755.678 97.0919 755.921 97.2131Z" fill="#3AA1A3"/>
</g>
<g filter="url(#filter1_i_497_4997)">
<path d="M143.522 12.97C141.762 12.97 140.669 12.97 139.576 12.97C116.324 12.97 93.0711 12.7275 69.8186 13.0912C62.4117 13.2124 54.8835 14.3639 47.7195 16.1821C34.1808 19.6367 24.2848 28.1215 17.3637 40.1216C15.7852 42.8488 14.2067 45.5155 12.9317 48.364C11.9604 50.5458 10.564 51.1519 8.19624 50.3034C8.92478 34.8488 9.65332 19.3942 10.4426 3.5154C11.5354 3.45479 12.5675 3.33358 13.6603 3.33358C71.5792 3.33358 129.559 3.27297 187.478 3.33358C188.571 3.33358 189.663 3.81843 190.817 4.06085C190.392 5.03055 190.088 6.06086 189.481 6.90934C167.746 39.2125 145.951 71.5156 124.277 103.879C102.785 136.001 81.3538 168.183 59.9226 200.364C55.6727 206.728 51.5443 213.152 47.1124 219.94C48.5695 220.001 49.4802 220.122 50.4515 220.122C74.9183 220.122 99.3851 220.183 123.852 220.122C134.901 220.122 145.83 218.91 156.333 215.031C169.082 210.304 178.492 201.637 186.021 190.667C187.599 188.364 188.996 185.819 190.695 183.577C191.424 182.607 192.76 182.061 193.792 181.334C194.095 181.577 194.338 181.819 194.642 182.061C194.156 184.789 193.731 187.516 193.245 190.243C190.999 202.425 188.631 214.607 186.506 226.849C186.081 229.395 185.049 230.001 182.56 230.001C131.684 229.94 80.8074 229.94 29.9917 229.94C21.0064 229.94 12.0211 230.001 2.97504 229.94C1.94294 229.94 0.971551 229.395 -0.0605469 229.152C0.303723 228.243 0.54657 227.274 1.03226 226.486C42.9233 164.001 84.7536 101.455 126.584 38.8488C131.623 31.2731 136.601 23.6973 141.58 16.1215C142.126 15.273 142.612 14.4245 143.522 12.97Z" fill="#3AA1A3"/>
</g>
<g filter="url(#filter2_i_497_4997)">
<path d="M682.399 219.819C671.592 230.304 658.782 234.425 643.908 230.607C635.59 228.486 631.098 222.243 628.669 214.364C628.001 212.183 627.576 209.88 626.909 207.274C626.241 208.001 625.694 208.546 625.269 209.092C611.063 229.395 591.149 235.274 567.533 231.758C557.394 230.243 548.226 226.304 541.366 218.425C525.459 200.183 529.77 170.182 549.987 156.667C561.886 148.788 575.182 144.91 589.025 142.667C600.317 140.91 611.67 139.637 622.962 138.182C623.873 138.061 624.723 137.879 625.512 137.758C625.694 137.455 625.877 137.273 625.877 137.091C625.512 125.94 625.816 114.667 624.541 103.637C623.205 92.061 617.195 82.9701 605.235 79.6974C592.667 76.2428 581.132 78.2428 571.843 88.1216C568.2 91.9398 566.318 96.7277 565.104 101.819C563.222 109.819 559.337 112.728 551.201 111.394C542.641 110 541.791 109.213 542.762 100.607C543.916 90.5459 550.594 84.364 558.912 79.6367C567.108 74.9701 576.032 72.4852 585.26 70.9701C598.374 68.8488 611.427 68.8488 624.359 72.3034C644.272 77.6367 655.443 91.1519 656.172 111.758C656.779 128.182 656.536 144.607 656.657 161.092C656.718 171.576 656.597 182.061 656.718 192.546C656.718 195.88 656.839 199.213 657.325 202.486C658.964 214.607 665.764 219.577 677.785 217.274C680.213 216.728 681.853 216.91 682.399 219.819ZM625.816 145.576C618.348 146.607 611.184 147.334 604.202 148.667C594.124 150.607 584.41 153.516 576.214 160.243C561.644 172.182 560.187 195.577 573.3 207.698C586.718 220.122 614.523 218.425 625.452 196.728C625.937 195.819 625.998 194.607 625.998 193.516C626.059 178.728 626.059 163.879 626.059 149.092C626.059 148.182 625.937 147.273 625.816 145.576Z" fill="#3AA1A3"/>
</g>
<g filter="url(#filter3_i_497_4997)">
<path d="M1094.75 206.79C1090.08 214.062 1085.04 219.881 1078.36 223.881C1058.08 235.881 1037.14 236.487 1016.8 224.729C1003.38 216.971 999.071 203.82 999.739 188.911C1000.47 172.547 1009.15 161.274 1023.17 153.577C1034.95 147.092 1047.76 143.941 1060.94 142.062C1070.95 140.608 1080.97 139.517 1090.99 138.244C1091.9 138.123 1092.75 137.941 1093.96 137.759C1093.72 124.668 1095.12 111.638 1091.53 98.9105C1087.59 84.8498 1076.78 77.6377 1061.24 78.3044C1047.28 78.8498 1037.14 87.5165 1034.28 101.335C1033.49 105.092 1033.01 109.032 1028.58 110.547C1023.29 112.365 1018.2 111.82 1013.4 109.214C1012.67 108.85 1012.18 107.638 1012.06 106.729C1010.67 99.3347 1012.73 92.668 1017.95 87.5771C1022.02 83.6377 1026.76 79.8801 1031.86 77.5771C1052.62 68.3043 1074.29 66.668 1096.03 73.4559C1114 79.0922 1123.95 93.2741 1124.26 113.214C1124.62 138.001 1124.38 162.85 1124.5 187.638C1124.56 192.971 1124.68 198.365 1125.47 203.638C1127.11 214.547 1134.34 219.396 1145.2 217.274C1145.87 217.153 1146.66 216.729 1147.27 216.911C1148.24 217.214 1149.39 217.699 1149.94 218.487C1150.24 218.971 1149.88 220.426 1149.33 220.911C1138.65 230.79 1126.14 234.184 1112.06 230.668C1102.83 228.365 1098.21 221.456 1095.97 212.668C1095.72 211.759 1095.6 210.911 1095.42 210.002C1095.24 209.214 1095.12 208.487 1094.75 206.79ZM1093.78 145.82C1089.11 146.305 1084.74 146.668 1080.36 147.335C1070.59 148.85 1060.81 150.547 1051.83 155.153C1040.42 161.032 1033.37 169.88 1032.28 182.971C1031.19 196.123 1037.26 207.517 1048.43 212.547C1061.48 218.365 1082.43 216.668 1092.93 197.759C1093.6 196.608 1093.84 195.093 1093.84 193.759C1093.9 178.911 1093.9 164.123 1093.9 149.274C1093.96 148.305 1093.84 147.274 1093.78 145.82Z" fill="#3AA1A3"/>
</g>
<g filter="url(#filter4_i_497_4997)">
<path d="M274.053 73.0924C274.842 75.3348 274.235 76.3045 271.989 76.7893C259.482 79.6378 256.69 84.547 261.364 96.547C270.593 120.123 280.124 143.577 289.474 167.093C293.42 177.032 297.306 186.971 301.434 197.335C301.98 196.487 302.405 196.002 302.648 195.456C314.305 164.911 326.022 134.426 337.497 103.82C339.015 99.6985 339.986 95.2743 340.35 90.9106C340.897 83.9409 337.497 79.7591 330.758 77.8197C329.604 77.5166 328.39 77.2742 327.236 76.9712C324.504 76.3045 324.504 76.3045 324.929 73.0924C325.779 73.0318 326.629 72.9106 327.54 72.9106C342.597 72.9106 357.653 72.8499 372.77 72.9106C374.045 72.9106 375.806 72.3045 375.988 74.5469C376.17 76.6075 374.47 76.6075 373.134 76.85C365.181 78.3045 359.414 82.85 356.135 90.0621C350.732 102.002 345.389 113.941 340.472 126.123C322.258 171.093 304.348 216.184 285.892 261.032C281.642 271.396 275.996 281.335 270.35 291.032C267.982 295.093 264.278 298.669 260.575 301.699C250.679 309.881 239.205 311.335 227.123 307.76C218.684 305.275 214.434 299.032 214.981 291.154C215.831 279.335 227.852 272.669 238.901 277.941C240.722 278.79 242.362 280.002 244.122 280.972C250.436 284.426 257.418 284.063 262.761 279.214C265.978 276.305 269.135 272.79 271.017 268.911C276.178 258.426 280.671 247.638 285.345 236.911C285.71 236.123 285.528 234.911 285.163 234.123C265.796 189.093 246.429 144.123 227.002 99.1531C225.787 96.3652 224.573 93.5773 223.116 90.9712C219.048 83.6379 213.099 78.6075 204.66 77.0318C203.263 76.7893 201.867 76.3651 202.413 74.6075C202.656 73.8803 203.87 73.0318 204.66 73.0318C227.609 72.9712 250.558 72.9712 273.507 72.9712C273.507 72.9106 273.689 72.9712 274.053 73.0924Z" fill="#3AA1A3"/>
</g>
<g filter="url(#filter5_i_497_4997)">
<path d="M500.082 204.546C505.121 207.698 505.303 208.001 502.328 212.789C496.075 222.91 486.604 228.607 475.19 231.031C462.441 233.758 449.631 234.001 437.488 228.243C426.196 222.91 421.096 213.152 419.275 201.395C418.668 197.516 418.486 193.576 418.486 189.637C418.425 156.182 418.486 122.667 418.486 89.2124C418.486 83.6972 417.575 82.7275 412.05 82.5457C407.315 82.4245 402.519 82.4245 397.783 82.5457C395.658 82.6063 394.808 81.8184 395.051 79.6972C395.112 78.9093 395.172 78.0608 395.051 77.2729C394.747 75.0305 395.901 74.3638 397.965 74.0608C402.458 73.4547 406.95 72.6669 411.382 71.7578C417.15 70.6063 418.546 68.7275 418.607 62.788C418.668 56.0608 418.607 49.2729 418.729 42.5456C418.729 41.5759 419.396 40.1819 420.186 39.7577C429.049 35.3334 437.974 31.091 446.838 26.7879C447.445 26.4849 448.113 26.3637 449.206 25.9395C449.206 41.6365 449.206 56.9698 449.206 72.6063C465.416 72.6063 481.262 72.6063 497.654 72.6063C497.654 75.6366 497.775 78.4245 497.532 81.1517C497.472 81.6972 495.711 82.4245 494.8 82.4245C481.14 82.4851 467.48 82.4851 453.881 82.4851C452.606 82.4851 451.27 82.4851 449.631 82.4851C449.57 83.8184 449.449 84.9699 449.449 86.1821C449.449 118.425 449.388 150.728 449.509 182.97C449.509 187.576 450.056 192.243 451.088 196.728C454.123 209.637 464.323 216.607 477.619 215.395C485.511 214.667 492.19 211.637 498.018 206.364C498.564 205.819 499.354 205.213 500.082 204.546Z" fill="#3AA1A3"/>
</g>
<path d="M1096.57 7.21247C1099.25 3.69731 1102.34 1.33367 1106.35 0.424575C1117.34 -1.99967 1125.9 6.30338 1124.14 17.6974C1123.41 22.2428 1121.59 26.364 1118.61 29.9398C1112.6 37.152 1105.2 42.7277 1097.48 47.8793C1096.88 48.3035 1095.42 48.3641 1094.87 47.9399C1087.22 42.3641 1079.45 36.8489 1073.63 29.2125C1070.53 25.2125 1068.65 20.6671 1068.59 15.5761C1068.46 8.72763 1071.56 3.45489 1077.09 1.21246C1083.04 -1.2724 1089.71 0.121544 1094.39 4.84883C1095 5.5155 1095.66 6.24277 1096.57 7.21247Z" fill="url(#paint0_linear_497_4997)"/>
</g>
<defs>
<filter id="filter0_i_497_4997" x="706.963" y="69.4102" width="266.791" height="165.887" filterUnits="userSpaceOnUse" color-interpolation-filters="sRGB">
<feFlood flood-opacity="0" result="BackgroundImageFix"/>
<feBlend mode="normal" in="SourceGraphic" in2="BackgroundImageFix" result="shape"/>
<feColorMatrix in="SourceAlpha" type="matrix" values="0 0 0 0 0 0 0 0 0 0 0 0 0 0 0 0 0 0 127 0" result="hardAlpha"/>
<feOffset dy="5"/>
<feGaussianBlur stdDeviation="2.5"/>
<feComposite in2="hardAlpha" operator="arithmetic" k2="-1" k3="1"/>
<feColorMatrix type="matrix" values="0 0 0 0 0 0 0 0 0 0 0 0 0 0 0 0 0 0 0.5 0"/>
<feBlend mode="normal" in2="shape" result="effect1_innerShadow_497_4997"/>
</filter>
<filter id="filter1_i_497_4997" x="-0.0605469" y="3.30664" width="194.702" height="231.693" filterUnits="userSpaceOnUse" color-interpolation-filters="sRGB">
<feFlood flood-opacity="0" result="BackgroundImageFix"/>
<feBlend mode="normal" in="SourceGraphic" in2="BackgroundImageFix" result="shape"/>
<feColorMatrix in="SourceAlpha" type="matrix" values="0 0 0 0 0 0 0 0 0 0 0 0 0 0 0 0 0 0 127 0" result="hardAlpha"/>
<feOffset dy="5"/>
<feGaussianBlur stdDeviation="2.5"/>
<feComposite in2="hardAlpha" operator="arithmetic" k2="-1" k3="1"/>
<feColorMatrix type="matrix" values="0 0 0 0 0 0 0 0 0 0 0 0 0 0 0 0 0 0 0.5 0"/>
<feBlend mode="normal" in2="shape" result="effect1_innerShadow_497_4997"/>
</filter>
<filter id="filter2_i_497_4997" x="531.699" y="69.5156" width="150.7" height="168.199" filterUnits="userSpaceOnUse" color-interpolation-filters="sRGB">
<feFlood flood-opacity="0" result="BackgroundImageFix"/>
<feBlend mode="normal" in="SourceGraphic" in2="BackgroundImageFix" result="shape"/>
<feColorMatrix in="SourceAlpha" type="matrix" values="0 0 0 0 0 0 0 0 0 0 0 0 0 0 0 0 0 0 127 0" result="hardAlpha"/>
<feOffset dy="5"/>
<feGaussianBlur stdDeviation="2.5"/>
<feComposite in2="hardAlpha" operator="arithmetic" k2="-1" k3="1"/>
<feColorMatrix type="matrix" values="0 0 0 0 0 0 0 0 0 0 0 0 0 0 0 0 0 0 0.5 0"/>
<feBlend mode="normal" in2="shape" result="effect1_innerShadow_497_4997"/>
</filter>
<filter id="filter3_i_497_4997" x="999.673" y="69.3008" width="150.376" height="168.922" filterUnits="userSpaceOnUse" color-interpolation-filters="sRGB">
<feFlood flood-opacity="0" result="BackgroundImageFix"/>
<feBlend mode="normal" in="SourceGraphic" in2="BackgroundImageFix" result="shape"/>
<feColorMatrix in="SourceAlpha" type="matrix" values="0 0 0 0 0 0 0 0 0 0 0 0 0 0 0 0 0 0 127 0" result="hardAlpha"/>
<feOffset dy="5"/>
<feGaussianBlur stdDeviation="2.5"/>
<feComposite in2="hardAlpha" operator="arithmetic" k2="-1" k3="1"/>
<feColorMatrix type="matrix" values="0 0 0 0 0 0 0 0 0 0 0 0 0 0 0 0 0 0 0.5 0"/>
<feBlend mode="normal" in2="shape" result="effect1_innerShadow_497_4997"/>
</filter>
<filter id="filter4_i_497_4997" x="202.292" y="72.8359" width="173.709" height="241.76" filterUnits="userSpaceOnUse" color-interpolation-filters="sRGB">
<feFlood flood-opacity="0" result="BackgroundImageFix"/>
<feBlend mode="normal" in="SourceGraphic" in2="BackgroundImageFix" result="shape"/>
<feColorMatrix in="SourceAlpha" type="matrix" values="0 0 0 0 0 0 0 0 0 0 0 0 0 0 0 0 0 0 127 0" result="hardAlpha"/>
<feOffset dy="5"/>
<feGaussianBlur stdDeviation="2.5"/>
<feComposite in2="hardAlpha" operator="arithmetic" k2="-1" k3="1"/>
<feColorMatrix type="matrix" values="0 0 0 0 0 0 0 0 0 0 0 0 0 0 0 0 0 0 0.5 0"/>
<feBlend mode="normal" in2="shape" result="effect1_innerShadow_497_4997"/>
</filter>
<filter id="filter5_i_497_4997" x="395.003" y="25.9395" width="109.277" height="211.953" filterUnits="userSpaceOnUse" color-interpolation-filters="sRGB">
<feFlood flood-opacity="0" result="BackgroundImageFix"/>
<feBlend mode="normal" in="SourceGraphic" in2="BackgroundImageFix" result="shape"/>
<feColorMatrix in="SourceAlpha" type="matrix" values="0 0 0 0 0 0 0 0 0 0 0 0 0 0 0 0 0 0 127 0" result="hardAlpha"/>
<feOffset dy="5"/>
<feGaussianBlur stdDeviation="2.5"/>
<feComposite in2="hardAlpha" operator="arithmetic" k2="-1" k3="1"/>
<feColorMatrix type="matrix" values="0 0 0 0 0 0 0 0 0 0 0 0 0 0 0 0 0 0 0.5 0"/>
<feBlend mode="normal" in2="shape" result="effect1_innerShadow_497_4997"/>
</filter>
<linearGradient id="paint0_linear_497_4997" x1="1096.48" y1="0" x2="1096.48" y2="48.2294" gradientUnits="userSpaceOnUse">
<stop stop-color="#FF0000"/>
<stop offset="1" stop-color="#990000"/>
</linearGradient>
<clipPath id="clip0_497_4997">
<rect width="1150" height="309.577" fill="white"/>
</clipPath>
</defs>
</svg>
